<?xml version="1.0" standalone="no"?>
<!DOCTYPE svg PUBLIC "-//W3C//DTD SVG 20010904//EN"
 "http://www.w3.org/TR/2001/REC-SVG-20010904/DTD/svg10.dtd">
<svg version="1.0" xmlns="http://www.w3.org/2000/svg"
 width="1125.000000pt" height="627.000000pt" viewBox="0 0 1125.000000 627.000000"
 preserveAspectRatio="xMidYMid meet">
<metadata>
Created by potrace 1.16, written by Peter Selinger 2001-2019
</metadata>
<g transform="translate(0.000000,627.000000) scale(0.100000,-0.100000)"
fill="#000000" stroke="none">
<path d="M0 5003 c1 -1057 3 -1265 14 -1250 14 18 46 23 46 7 0 -5 -7 -10 -15
-10 -8 0 -15 -4 -15 -10 0 -5 -7 -10 -15 -10 -13 0 -15 -61 -15 -479 l1 -479
29 -6 c16 -3 40 -17 52 -31 12 -14 27 -25 33 -25 7 0 17 -11 23 -25 6 -14 16
-25 22 -25 7 0 9 -8 5 -19 -3 -11 -1 -22 5 -26 6 -3 8 -10 5 -15 -3 -4 -6 -34
-6 -65 -1 -38 -6 -58 -15 -62 -8 -3 -14 -11 -14 -18 0 -14 -45 -29 -60 -20
-16 10 -17 -20 -1 -33 14 -11 9 -12 -31 -7 l-48 6 0 -67 c0 -52 4 -70 18 -80
16 -13 16 -14 0 -8 -17 6 -18 -5 -18 -128 l0 -135 39 -12 c38 -11 42 -10 127
39 48 27 91 50 95 50 20 0 7 -17 -23 -32 -18 -8 -55 -32 -81 -52 l-48 -37 -51
16 c-29 8 -53 15 -55 15 -2 0 -3 -443 -3 -985 l0 -985 1085 0 c829 0 1085 3
1085 12 0 9 3 9 12 0 18 -18 68 -15 68 3 0 8 4 15 9 15 5 0 12 11 15 25 4 14
10 25 15 25 5 0 1 -17 -9 -37 l-18 -38 401 -3 c220 -1 404 1 407 5 4 5 15 39
25 77 20 77 59 173 91 226 12 19 25 51 29 70 4 19 23 91 42 160 47 171 68 275
82 405 16 148 30 405 24 422 -3 8 2 13 12 13 13 0 15 3 7 13 -5 6 -13 23 -17
37 -7 24 -6 24 8 6 14 -19 15 -19 27 4 10 19 10 22 -2 18 -9 -4 -14 2 -16 18
-1 18 3 24 18 24 13 0 22 9 26 27 3 16 10 41 14 56 5 15 7 34 4 42 -4 10 0 15
10 15 9 0 39 11 66 25 60 30 80 32 80 5 0 -11 -4 -20 -10 -20 -5 0 -10 -8 -10
-17 0 -11 3 -14 8 -7 4 7 13 -2 23 -22 17 -35 11 -45 -10 -20 -6 8 -20 16 -30
19 -15 3 -20 -2 -25 -26 -3 -17 -9 -27 -13 -24 -13 14 -43 -25 -37 -48 3 -13
1 -26 -6 -30 -8 -5 -8 -10 1 -21 6 -7 9 -20 6 -28 -3 -8 -1 -16 5 -18 18 -6
-13 -88 -46 -122 -47 -48 -75 -126 -45 -126 5 0 7 -5 4 -10 -4 -6 -1 -17 5
-25 9 -11 8 -19 -4 -37 -9 -12 -16 -33 -16 -45 0 -13 -6 -32 -13 -43 -10 -17
-9 -22 2 -29 9 -6 11 -15 6 -27 -5 -11 -10 -44 -12 -74 -2 -30 -8 -56 -13 -58
-13 -5 0 -32 16 -32 8 0 14 -4 14 -10 0 -5 -13 -10 -30 -10 -34 0 -40 -15 -10
-25 30 -9 24 -22 -12 -31 -18 -4 -27 -9 -20 -11 7 -3 12 -23 12 -51 0 -73 10
-78 56 -31 21 22 46 45 55 50 11 5 60 1 135 -12 66 -11 146 -22 179 -24 33 -2
121 -9 195 -16 74 -6 171 -13 215 -15 64 -2 81 -6 83 -19 4 -20 -17 -47 -30
-39 -6 4 -6 9 2 14 7 5 0 9 -19 12 -24 3 -31 1 -27 -9 3 -7 -1 -13 -9 -13 -8
0 -15 -4 -15 -10 0 -5 -7 -10 -15 -10 -8 0 -15 7 -15 15 0 9 -9 15 -21 15 -12
0 -23 8 -26 20 -6 21 -26 23 -195 25 -31 0 -54 4 -51 8 3 5 -26 8 -63 6 -38
-1 -91 2 -118 6 -36 5 -51 3 -57 -7 -7 -10 -9 -10 -9 0 0 8 -17 12 -50 12 -27
0 -50 5 -50 10 0 6 -7 10 -16 10 -8 0 -12 -4 -9 -10 3 -5 -3 -10 -14 -10 -12
0 -21 -3 -21 -8 0 -4 21 -5 46 -3 36 2 45 0 39 -10 -6 -9 -3 -11 9 -6 9 4 15
3 11 -3 -7 -12 58 -42 98 -45 48 -3 77 -16 77 -32 0 -10 -6 -13 -16 -9 -11 4
-14 1 -10 -12 7 -21 -27 -45 -53 -37 -10 3 -38 -1 -62 -9 -24 -7 -66 -17 -94
-20 -27 -3 -75 -12 -105 -18 -50 -11 -52 -13 -25 -18 28 -5 27 -7 -30 -28 -34
-13 -74 -34 -90 -47 -33 -28 -12 -24 40 6 30 18 163 44 173 34 3 -3 -4 -5 -16
-5 -18 0 -22 -6 -22 -29 0 -17 -5 -33 -10 -36 -13 -8 -13 -72 0 -80 5 -3 7
-12 4 -19 -3 -8 -1 -17 5 -20 6 -4 8 -20 4 -36 -5 -26 -2 -30 16 -30 11 0 21
-4 21 -10 0 -5 -7 -10 -15 -10 -8 0 -12 -6 -9 -14 3 -8 0 -17 -5 -21 -6 -3 -9
-11 -6 -16 8 -12 -21 -12 -44 1 -27 14 -96 110 -112 155 -14 43 -36 76 -24 38
4 -15 2 -23 -6 -23 -8 0 -6 -6 4 -18 33 -36 18 -70 -19 -45 -13 8 -24 11 -24
5 0 -6 21 -21 48 -34 54 -27 64 -36 58 -60 -2 -10 2 -18 9 -18 7 0 15 -7 19
-15 5 -13 63 -15 445 -15 l439 0 6 24 c3 14 9 49 11 78 8 71 21 171 41 293 9
55 16 112 16 127 -1 15 4 30 9 33 5 4 9 17 9 31 0 34 21 39 79 20 27 -9 79
-20 115 -25 36 -5 70 -12 75 -16 6 -3 27 -3 47 1 53 10 22 24 -53 24 -34 0
-65 4 -68 10 -3 5 -15 10 -26 10 -29 0 -141 39 -160 56 -9 8 -24 12 -33 8 -13
-5 -16 0 -16 26 0 17 -4 29 -10 25 -5 -3 -6 -13 -3 -21 5 -14 -3 -16 -73 -10
-43 4 -97 11 -119 16 -22 5 -77 10 -122 10 -67 0 -83 3 -83 15 0 18 -17 20
-22 3 -3 -7 -11 -9 -24 -3 -10 4 -39 9 -64 10 -25 1 -33 0 -17 -2 15 -2 25 -8
23 -12 -3 -4 -27 -4 -53 1 -26 4 -65 10 -87 14 -37 5 -38 6 -17 20 11 8 36 28
53 45 18 16 38 27 45 25 7 -3 10 1 7 7 -2 7 8 20 23 29 16 9 38 25 50 35 12
10 31 26 43 36 11 10 26 15 32 11 6 -4 8 -3 5 3 -7 12 29 30 61 31 12 1 22 -3
22 -9 0 -5 -5 -9 -12 -9 -6 0 -8 -3 -4 -7 4 -4 25 -6 47 -4 34 2 41 -1 46 -18
4 -17 13 -21 44 -21 24 0 39 -5 39 -12 0 -9 4 -8 10 2 9 13 10 13 10 0 0 -12
2 -13 9 -1 7 11 9 11 14 0 4 -11 6 -11 6 -1 1 10 5 10 17 -2 8 -9 24 -16 34
-16 10 0 21 -9 25 -19 9 -30 35 -35 35 -7 0 13 6 29 14 35 25 21 40 -21 24
-67 -16 -46 -17 -49 -26 -35 -11 17 -44 -11 -36 -31 8 -21 21 -20 27 1 4 17 5
17 6 1 1 -22 21 -24 21 -2 0 8 5 12 10 9 6 -3 7 -17 4 -31 -3 -13 -4 -24 0
-24 14 0 37 67 43 125 3 36 9 65 13 65 4 0 10 10 13 22 2 13 8 31 12 42 7 15
5 17 -13 12 -17 -6 -21 -3 -19 13 1 11 3 18 6 16 10 -10 31 19 31 42 0 22 -4
24 -24 19 -18 -4 -25 -1 -29 13 -11 44 -190 42 -223 -3 -8 -12 -20 -17 -35
-13 -11 3 -33 1 -48 -4 -24 -9 -25 -8 -7 6 18 14 18 15 2 15 -10 0 -14 5 -10
11 3 6 17 8 29 5 14 -4 27 -1 31 6 5 8 2 9 -9 5 -10 -3 -17 -3 -17 1 0 7 48
32 63 32 5 0 16 9 25 20 10 11 26 21 37 22 33 4 229 -24 243 -34 8 -7 12 -7
12 1 0 19 28 12 35 -8 3 -11 19 -22 38 -25 56 -11 77 -37 77 -95 0 -60 -19
-76 -81 -66 -25 4 -39 3 -39 -4 0 -6 7 -11 16 -11 9 0 31 -7 50 -16 28 -14 34
-22 34 -49 0 -28 6 -35 49 -58 27 -15 53 -27 59 -27 6 0 24 27 40 60 16 33 32
57 37 53 4 -5 5 -2 1 5 -7 11 6 54 56 189 18 49 21 52 71 64 116 27 261 94
301 138 16 18 17 21 3 21 -9 0 -19 -5 -22 -10 -5 -8 -11 -8 -20 0 -11 9 -12 7
-8 -8 3 -15 -5 -24 -39 -41 -24 -11 -38 -21 -33 -21 20 -1 -67 -28 -113 -35
-95 -15 -102 -15 -102 -1 0 9 22 21 58 31 82 23 159 55 173 71 6 8 18 14 26
14 7 0 16 7 19 15 4 8 12 15 18 15 18 0 122 116 118 132 -2 9 0 9 7 -2 5 -8 7
-18 5 -22 -8 -13 9 -9 46 11 53 28 122 12 136 -31 3 -10 10 -18 16 -18 6 0 17
-8 24 -18 12 -15 13 -12 13 23 0 22 -3 34 -6 28 -10 -26 -20 -12 -21 30 -1 23
-3 52 -6 64 -7 35 3 61 24 56 9 -3 17 -10 16 -16 -2 -22 19 -19 24 3 3 12 8
21 13 21 23 -2 27 2 33 34 3 19 10 38 15 41 5 3 4 14 -2 26 -8 14 -8 23 0 31
6 6 11 19 11 29 0 10 5 18 10 18 18 0 10 31 -12 51 -18 14 -19 18 -7 19 8 0
26 -12 39 -27 18 -21 21 -30 11 -45 -15 -23 -14 -45 2 -52 6 -3 3 -4 -8 -3
-16 2 -21 -6 -27 -43 -4 -25 -10 -56 -13 -70 -20 -83 -26 -153 -15 -160 9 -6
9 -9 1 -11 -8 -3 -14 -49 -17 -130 -5 -102 -3 -129 9 -140 8 -9 12 -27 10 -44
-2 -17 9 -73 25 -125 28 -91 33 -148 8 -102 -8 16 -12 -29 -14 -186 -2 -114
-5 -238 -8 -277 -3 -49 2 -98 17 -163 19 -83 21 -102 11 -170 -7 -43 -15 -87
-18 -99 l-6 -23 2836 0 2836 0 0 3135 0 3135 -5625 0 -5625 0 0 -1267z m5506
16 c3 -5 14 -9 25 -9 10 0 19 -6 19 -13 0 -19 30 -44 62 -52 14 -4 34 -15 44
-26 9 -10 25 -19 35 -19 10 0 21 -5 24 -10 4 -6 10 -8 14 -6 4 3 35 -22 69
-55 35 -33 72 -59 83 -59 50 0 104 -49 113 -105 14 -91 19 -110 29 -117 14 -8
36 -97 27 -103 -4 -3 -11 5 -15 18 -5 18 -9 14 -21 -28 -7 -27 -18 -85 -24
-127 -9 -73 -31 -128 -51 -128 -12 0 2 62 18 78 26 26 15 52 -31 73 -24 10
-58 22 -75 25 -17 4 -31 13 -31 20 0 21 -15 17 -28 -8 -19 -38 -28 -91 -22
-128 4 -29 15 -42 60 -72 l55 -37 23 21 c28 27 28 23 -4 -46 -14 -31 -23 -59
-20 -64 7 -12 -21 -89 -54 -147 -16 -27 -41 -75 -57 -105 -16 -30 -44 -77 -63
-104 -34 -47 -35 -48 -38 -20 -2 15 2 39 10 52 10 20 10 26 1 29 -8 3 -13 22
-13 49 0 39 -3 45 -32 60 -18 9 -46 28 -61 43 -24 22 -37 26 -91 26 -47 0 -62
3 -59 12 3 7 9 10 15 7 16 -10 37 28 27 48 -13 25 -29 22 -29 -4 l0 -23 -18
22 c-22 28 -67 37 -84 16 -7 -9 -27 -22 -44 -29 -30 -13 -34 -20 -49 -89 -1
-5 -3 -15 -3 -22 -1 -6 -10 -11 -20 -10 -14 1 -19 9 -19 31 0 16 -5 32 -11 34
-7 2 -12 12 -12 22 0 10 -4 21 -9 24 -5 3 -7 15 -4 26 4 16 1 19 -25 16 -16
-3 -39 -10 -51 -17 -18 -12 -23 -11 -36 7 -8 12 -28 27 -45 34 -18 8 -30 20
-30 31 0 11 -4 19 -10 19 -5 0 -10 7 -10 15 0 9 -6 15 -12 14 -26 -3 -39 1
-37 14 3 25 -1 38 -11 32 -6 -4 -8 -15 -5 -25 3 -10 1 -21 -5 -25 -5 -3 -10
-21 -10 -40 0 -18 -7 -40 -15 -48 -13 -13 -12 -22 5 -73 20 -59 26 -104 13
-104 -21 1 -31 22 -47 102 l-18 87 27 89 27 90 32 -19 32 -19 22 25 c12 14 26
25 31 25 5 0 14 14 20 31 6 17 15 28 21 24 5 -3 10 1 10 9 0 9 7 16 15 16 8 0
15 -7 15 -15 0 -9 9 -15 25 -15 19 0 25 -5 25 -21 0 -17 3 -19 14 -10 12 10
17 8 26 -8 14 -26 22 -26 38 0 8 12 9 18 3 15 -5 -4 -12 2 -15 11 -3 10 -16
23 -28 28 -13 6 -29 25 -37 43 -14 31 -31 43 -31 22 0 -5 -7 -10 -15 -10 -17
0 -20 16 -5 25 6 3 10 15 10 26 0 16 -5 19 -20 14 -16 -5 -20 -2 -20 19 0 14
-4 26 -9 26 -4 0 -6 11 -3 25 2 14 9 25 14 25 5 0 6 5 2 12 -4 6 -3 8 4 4 5
-3 24 5 40 19 16 14 32 25 35 25 3 0 28 14 56 31 45 28 51 36 57 78 10 57 6
84 -12 94 -20 11 0 47 26 47 12 0 20 7 20 18 0 9 7 26 15 36 8 11 15 30 15 43
0 14 6 23 15 23 9 0 15 9 15 23 0 32 11 44 45 53 17 4 38 12 47 19 19 12 75 8
84 -6z m-826 -399 c-13 -25 6 -80 29 -80 10 0 11 -8 7 -27 -4 -16 -7 -40 -6
-55 0 -34 -7 -36 -20 -5 -9 20 -9 19 -7 -8 2 -26 6 -30 32 -31 48 -1 75 -14
75 -35 0 -21 -20 -25 -38 -7 -15 15 -24 5 -24 -26 0 -23 -2 -24 -23 -10 -35
23 -47 62 -53 166 -4 81 -2 102 12 124 20 30 33 26 16 -6z m75 -597 c-4 -21
-11 -62 -18 -92 -10 -48 -9 -55 8 -67 10 -7 22 -11 28 -7 16 10 0 -115 -18
-140 -19 -28 -19 -41 0 -33 10 4 19 -2 25 -18 5 -13 29 -38 53 -56 24 -17 50
-43 58 -57 7 -13 21 -29 31 -34 10 -5 18 -17 17 -27 0 -14 -3 -13 -16 6 -20
28 -63 30 -70 2 -3 -12 -14 -20 -27 -21 -19 -1 -19 -2 -2 -6 11 -3 37 -16 58
-29 25 -16 46 -22 61 -19 18 5 23 2 23 -13 0 -11 -6 -18 -12 -15 -7 2 -15 0
-19 -6 -3 -6 -1 -11 5 -11 6 0 8 -5 4 -11 -3 -6 -15 -9 -25 -6 -10 3 -20 0
-22 -6 -2 -8 -9 -6 -20 4 -16 17 -67 15 -67 -2 0 -4 7 -29 15 -53 14 -42 14
-48 -1 -71 -11 -17 -22 -24 -34 -20 -10 3 -21 1 -25 -5 -3 -6 4 -10 17 -10 21
-1 22 -2 6 -14 -21 -16 -23 -36 -4 -36 16 0 38 24 30 33 -3 3 3 14 14 25 11
11 22 18 25 16 2 -3 3 6 1 18 -7 41 72 108 126 108 18 0 102 14 187 31 162 33
174 32 188 -12 11 -33 32 -21 54 31 12 28 26 50 31 50 6 0 8 16 5 35 -5 40 2
43 39 14 17 -14 26 -30 26 -50 0 -16 -4 -29 -9 -29 -14 0 -34 -58 -28 -80 4
-15 0 -20 -13 -20 -23 0 -32 -24 -17 -44 11 -13 14 -13 33 3 12 9 24 26 26 37
2 11 11 18 20 16 10 -1 18 7 22 23 4 14 11 25 16 25 13 0 43 -47 37 -58 -9
-13 63 -14 115 -1 37 10 51 10 60 1 15 -15 64 -16 73 -2 18 30 83 -14 77 -51
-2 -10 2 -19 7 -19 6 0 11 9 11 20 0 24 26 26 67 6 35 -19 62 -28 88 -31 137
-15 162 -21 188 -43 17 -15 17 -14 11 4 -6 16 -5 17 7 7 7 -7 23 -13 35 -13
13 0 26 -4 29 -10 3 -5 15 -10 25 -10 32 0 138 -49 240 -111 60 -37 69 -40
120 -35 46 4 50 4 25 -5 -16 -5 -61 -10 -99 -10 -62 0 -71 -3 -97 -29 -36 -35
-37 -58 -4 -70 14 -5 25 -17 25 -28 0 -24 19 -42 37 -35 7 3 20 18 29 34 18
37 27 36 41 -1 11 -30 16 -34 66 -44 15 -4 25 -11 22 -17 -5 -7 -11 -6 -20 1
-9 8 -15 8 -20 0 -3 -6 -12 -7 -18 -3 -23 14 -78 13 -106 -2 -21 -10 -32 -12
-37 -4 -3 6 -16 8 -28 5 -11 -3 -54 -8 -93 -12 -60 -5 -73 -4 -73 8 0 15 -22
16 -53 3 -10 -4 -21 -4 -25 0 -4 4 -1 10 6 12 6 3 12 11 12 19 0 8 5 14 10 14
6 0 10 5 10 10 0 17 -20 11 -27 -7 -4 -10 -15 -27 -25 -37 -9 -10 -35 -55 -57
-100 -22 -45 -41 -72 -41 -62 0 20 0 20 -15 0 -14 -19 -14 -19 -15 1 0 13 -3
16 -8 8 -4 -7 -13 -9 -21 -4 -9 6 -10 11 -2 15 6 4 11 15 11 24 0 31 94 192
112 192 4 0 8 7 8 15 0 25 -17 17 -30 -15 -7 -16 -16 -27 -21 -24 -5 3 -9 1
-9 -4 0 -16 -31 -23 -46 -11 -7 6 -18 7 -25 3 -7 -4 -10 -2 -7 7 3 8 15 13 27
12 11 -2 21 2 21 7 0 6 -4 10 -9 10 -5 0 -8 11 -7 24 1 24 16 26 16 2 0 -8 6
-19 14 -25 11 -10 16 -8 21 8 3 12 11 21 16 21 5 0 9 5 9 10 0 6 -6 10 -14 10
-8 0 -17 6 -20 13 -4 8 -8 9 -11 1 -5 -9 -12 -9 -30 0 -14 6 -25 14 -25 19 0
4 -7 7 -17 7 -14 0 -15 -2 -1 -17 21 -25 29 -51 18 -58 -6 -4 -10 0 -10 7 0 7
-9 19 -21 26 -14 9 -18 19 -14 32 5 15 2 20 -13 20 -11 0 -22 6 -25 13 -6 17
-16 5 -26 -31 -8 -27 -6 -33 17 -48 36 -23 51 -45 51 -69 0 -20 0 -20 -9 0
-10 26 -29 42 -54 47 -15 2 -22 -5 -29 -32 -5 -19 -12 -29 -14 -22 -3 6 -13
12 -23 12 -10 0 -21 7 -24 15 -3 9 -11 15 -18 13 -7 -1 -25 6 -40 16 -15 9
-39 16 -54 14 -32 -4 -45 -28 -15 -28 15 0 19 -4 14 -17 -5 -14 -2 -13 13 4
15 17 24 20 42 13 22 -9 31 -30 12 -30 -5 0 -10 -9 -10 -20 0 -27 17 -26 26 2
6 20 8 20 19 5 7 -9 21 -17 32 -17 11 0 26 -7 34 -16 11 -13 9 -14 -17 -8 -16
4 -34 11 -41 16 -13 10 -28 -7 -18 -22 3 -5 1 -19 -5 -30 -13 -25 -43 -27 -38
-2 2 9 10 16 18 14 11 -3 11 0 0 13 -18 21 -31 6 -32 -36 0 -19 -5 -40 -10
-46 -16 -20 21 -113 41 -106 14 4 14 3 1 -6 -9 -7 -11 -14 -5 -18 6 -5 11 -19
11 -33 1 -14 11 -56 22 -95 28 -100 31 -115 23 -115 -4 0 -15 32 -25 70 -33
139 -108 317 -164 389 -15 19 -39 55 -53 79 -15 24 -29 40 -31 36 -3 -5 -6
-67 -6 -139 -3 -223 -18 -331 -36 -244 -10 52 -26 21 -27 -54 -1 -64 -2 -69
-12 -45 -10 21 -16 24 -29 17 -10 -5 -15 -16 -12 -23 7 -18 -13 -56 -29 -56
-7 0 -18 -9 -25 -20 -7 -12 -8 -20 -2 -20 5 0 10 -5 10 -12 0 -6 7 -20 16 -30
24 -25 8 -79 -28 -96 -31 -15 -28 -42 5 -42 23 0 57 -27 57 -45 0 -7 8 -19 18
-26 16 -13 16 -13 2 5 -14 18 -13 19 17 14 18 -2 34 0 37 6 2 6 5 3 5 -6 1
-12 -6 -18 -19 -18 -11 0 -20 -4 -20 -10 0 -15 -21 -12 -42 7 -17 15 -19 15
-37 -1 -17 -15 -24 -16 -60 -5 -29 9 -44 9 -54 1 -24 -20 -38 3 -38 62 0 32 2
60 5 64 3 3 6 -23 6 -57 0 -34 4 -60 8 -57 4 3 8 123 9 268 0 165 -2 243 -7
208 -4 -30 -9 -111 -9 -180 -1 -74 -5 -119 -10 -111 -5 7 -7 83 -6 168 3 124
7 158 19 172 9 10 16 23 16 29 0 16 31 83 48 104 12 14 38 98 59 187 5 22 3
23 -20 17 -50 -12 -78 -26 -83 -41 -9 -22 -23 -18 -17 5 3 12 0 20 -7 20 -6 0
-10 -10 -9 -22 5 -56 -15 -113 -52 -153 -30 -31 -37 -35 -32 -18 3 14 -3 36
-16 57 -21 33 -21 36 -5 61 9 14 21 25 28 25 6 0 3 5 -8 11 -13 8 -20 8 -25 0
-8 -13 -67 1 -64 15 1 5 14 10 28 12 23 3 37 22 15 22 -5 0 -16 12 -24 28 -12
23 -15 25 -21 10 -11 -29 -36 -22 -33 8 2 16 -3 29 -11 32 -8 3 -11 0 -7 -7 4
-6 -5 -23 -19 -37 -27 -27 -48 -26 -25 0 6 9 10 21 7 28 -2 7 -10 0 -17 -17
-30 -71 -37 -82 -75 -117 -29 -27 -49 -38 -72 -38 -21 0 -37 -7 -47 -22 -12
-16 -26 -22 -58 -22 -34 -1 -42 -4 -40 -18 2 -13 -4 -15 -37 -11 -33 4 -45 1
-75 -23 -20 -16 -40 -42 -44 -59 -7 -27 -12 -30 -40 -27 -23 3 -32 0 -30 -9 2
-7 -2 -13 -9 -14 -7 0 -18 -6 -25 -12 -7 -8 -37 -13 -70 -13 -61 0 -108 -15
-108 -36 0 -6 -14 -17 -31 -23 -28 -10 -31 -14 -26 -41 7 -31 2 -34 -66 -33
-10 0 -16 -5 -14 -11 2 -6 26 -11 53 -11 27 -1 57 -5 67 -9 24 -11 33 0 16 21
-13 15 -12 16 6 9 11 -5 28 -11 38 -13 25 -7 21 -20 -8 -27 -14 -4 -25 -13
-25 -21 0 -13 -25 -21 -52 -16 -5 0 -8 -4 -8 -10 0 -5 -5 -7 -11 -4 -5 4 -19
-1 -30 -11 -13 -12 -37 -18 -69 -19 -42 -1 -50 2 -50 17 0 10 -7 18 -15 18
-24 0 -17 -28 11 -43 22 -11 24 -15 10 -20 -9 -4 -16 -2 -16 4 0 5 -11 2 -25
-7 -14 -9 -25 -23 -25 -31 0 -9 -5 -11 -12 -6 -19 11 -51 4 -65 -14 -10 -13
-15 -14 -28 -3 -13 11 -19 8 -38 -16 -12 -16 -30 -35 -39 -43 -10 -9 -18 -21
-18 -28 0 -18 -19 -16 -27 3 -5 15 -7 15 -15 0 -5 -9 -13 -14 -18 -11 -5 3
-17 -8 -26 -25 -10 -16 -24 -30 -32 -30 -17 0 -58 38 -49 46 12 12 -18 32 -34
23 -9 -4 -19 -6 -22 -3 -3 3 -24 -4 -48 -15 -23 -12 -51 -21 -61 -21 -11 0
-33 -7 -49 -16 -17 -8 -40 -14 -52 -13 -36 4 -127 -12 -122 -21 8 -13 -12 -22
-57 -24 -22 -1 -46 -9 -52 -17 -6 -9 -18 -18 -27 -21 -12 -5 -15 -14 -12 -32
3 -15 1 -26 -6 -26 -6 0 -11 9 -11 20 0 24 -15 26 -24 4 -4 -10 -13 -14 -24
-10 -14 5 -14 4 2 -9 16 -12 17 -17 6 -30 -9 -11 -9 -15 -1 -15 7 0 9 -5 6
-10 -9 -15 -25 -12 -25 4 0 9 -7 12 -20 9 -22 -6 -26 -18 -10 -28 20 -12 10
-25 -19 -25 -16 0 -37 -8 -47 -17 -9 -10 -30 -17 -45 -17 -16 1 -29 -2 -29 -7
0 -20 -40 -29 -82 -19 -36 8 -45 7 -56 -7 -16 -23 -15 -157 3 -207 l14 -39
-21 20 c-27 28 -61 143 -65 229 -8 131 8 194 102 415 81 188 124 267 191 339
30 33 84 169 84 213 0 18 7 48 16 65 8 17 16 42 17 54 1 13 15 47 30 76 15 30
27 61 27 71 0 10 14 36 32 59 30 39 33 40 50 26 20 -19 50 -12 42 10 -3 8 -11
13 -19 10 -7 -3 -15 3 -19 13 -5 12 1 23 18 36 15 10 26 24 26 30 0 7 10 18
21 26 18 11 23 11 30 0 4 -8 12 -10 16 -5 4 5 2 11 -4 13 -19 7 -16 17 13 48
25 27 26 28 60 12 19 -9 34 -12 34 -7 0 6 5 10 11 10 6 0 9 -7 6 -15 -7 -18 9
-29 30 -21 14 6 14 9 -2 26 -12 14 -31 20 -57 20 -47 0 -48 21 -2 31 16 4 22
7 14 8 -11 1 -9 7 9 21 31 27 92 27 116 0 22 -24 35 -26 35 -5 0 10 10 15 30
15 22 0 30 -5 29 -17 0 -11 -3 -13 -6 -5 -2 6 -11 12 -19 12 -11 0 -12 -4 -3
-19 7 -11 9 -26 4 -37 -7 -16 -9 -15 -15 11 -6 25 -8 27 -15 12 -11 -26 11
-48 39 -38 15 6 28 4 45 -10 13 -10 20 -19 15 -19 -4 0 -3 -5 4 -12 9 -9 15
-9 24 0 8 8 5 16 -13 31 -13 11 -29 20 -35 21 -6 0 -18 7 -25 16 -12 15 -10
16 18 10 34 -8 56 8 23 17 -12 3 -20 14 -20 27 0 21 3 21 88 19 48 -2 102 -9
120 -16 18 -8 37 -11 42 -8 6 4 10 1 10 -4 0 -6 11 -11 25 -11 15 0 24 -5 22
-12 -1 -8 10 -14 26 -16 29 -4 37 15 10 25 -13 5 -12 8 8 15 19 7 21 11 9 18
-10 7 4 10 45 11 43 0 54 3 40 9 -12 5 -14 9 -6 9 8 1 22 -6 31 -14 16 -14 18
-14 24 0 3 9 2 13 -4 10 -6 -3 -10 -2 -10 4 0 5 30 12 68 16 37 3 79 8 94 11
14 3 29 0 33 -5 8 -14 63 14 93 48 24 27 112 200 112 220 0 6 4 19 9 29 25 46
111 249 111 261 0 6 2 11 5 11 3 0 3 -17 0 -37z m646 -165 c37 -20 50 -38 30
-38 -14 0 -101 -92 -101 -106 0 -19 -51 -75 -64 -71 -17 6 -16 53 2 73 10 11
16 28 14 38 -3 15 -6 16 -12 5 -16 -25 -21 -2 -10 46 6 27 19 54 28 61 26 20
70 17 113 -8z m-4678 -235 c53 -47 99 -137 91 -175 -4 -18 -2 -28 5 -28 6 0
11 9 11 21 0 70 148 110 221 60 58 -39 84 -87 83 -151 -3 -88 -20 -137 -55
-155 -16 -9 -33 -13 -38 -10 -5 2 -12 -2 -15 -11 -3 -8 -10 -13 -15 -10 -6 4
-80 12 -143 16 -5 0 -8 4 -8 10 0 5 7 7 15 4 20 -8 20 22 0 33 -22 13 -55 83
-55 116 0 24 -3 27 -13 18 -8 -6 -17 -8 -20 -4 -4 3 -15 -1 -24 -9 -10 -9 -29
-19 -43 -23 -14 -4 -27 -11 -30 -16 -3 -5 -19 -8 -35 -8 -17 0 -54 0 -83 -1
-63 -1 -80 7 -55 25 17 13 17 14 -2 37 -49 57 -60 129 -31 215 24 72 61 96
139 89 50 -4 64 -9 100 -43z m9849 -10 c22 -20 23 -56 3 -73 -12 -10 -15 -10
-15 4 0 8 -11 23 -25 32 -20 13 -31 14 -56 5 -18 -6 -43 -11 -55 -11 -13 0
-24 -3 -24 -7 0 -5 -17 -8 -38 -7 -20 0 -41 -3 -47 -6 -5 -4 -23 -10 -40 -14
-16 -4 -33 -13 -37 -19 -6 -9 -8 -9 -8 1 0 15 -27 16 -32 1 -2 -7 -23 -12 -46
-12 -23 0 -47 -6 -53 -13 -6 -8 -20 -14 -30 -14 -10 0 -21 -10 -24 -21 -5 -16
-9 -18 -15 -9 -7 11 -14 11 -41 0 -18 -8 -27 -16 -21 -18 19 -6 3 -22 -23 -22
-12 0 -25 -7 -29 -15 -3 -9 -18 -15 -36 -15 -24 0 -30 -4 -30 -22 0 -17 -3
-19 -9 -9 -7 11 -13 10 -35 -5 -14 -11 -26 -22 -26 -26 0 -4 -14 -5 -32 -1
-21 4 -29 3 -25 -4 5 -8 -6 -9 -32 -6 -32 4 -46 0 -74 -21 -25 -19 -42 -25
-63 -21 -16 3 -35 2 -42 -3 -17 -12 -4 -42 18 -42 31 0 50 -11 50 -30 0 -11 5
-22 11 -25 7 -5 5 -13 -6 -25 -16 -17 -15 -20 17 -50 18 -18 60 -46 93 -62 75
-38 98 -56 141 -110 38 -48 46 -105 18 -132 -19 -20 -25 -20 -18 -1 4 9 -1 18
-12 22 -10 4 -28 17 -39 28 -11 12 -25 20 -32 18 -6 -2 -14 5 -18 17 -4 12
-18 26 -31 32 -13 6 -24 19 -24 30 0 10 -7 18 -15 18 -8 0 -15 -4 -15 -10 0
-5 -5 -10 -12 -10 -8 0 -7 6 4 16 15 15 14 18 -3 35 -23 23 -37 25 -19 4 7 -9
9 -19 5 -23 -4 -4 -10 -1 -12 6 -3 6 -10 12 -17 12 -20 0 -71 28 -100 55 -15
14 -34 25 -42 25 -19 0 -94 48 -94 60 0 6 -4 10 -10 10 -15 0 -12 -21 7 -42
15 -17 15 -18 -5 -18 -17 0 -25 11 -38 58 -19 65 -30 82 -53 82 -24 1 -61 35
-61 57 0 16 -6 19 -32 15 -18 -3 -45 -13 -61 -24 -21 -15 -36 -18 -67 -13 -22
4 -42 11 -46 16 -3 5 -18 9 -35 9 -20 0 -29 5 -30 18 -1 14 -2 15 -6 1 -5 -20
-129 -43 -183 -34 -27 4 -31 3 -15 -4 14 -8 2 -9 -45 -6 -45 4 -60 2 -50 -5
13 -9 13 -10 0 -11 -8 -1 -22 -1 -32 0 -9 1 -19 -3 -23 -9 -3 -5 -19 -10 -34
-10 -24 0 -30 -5 -35 -31 -3 -17 -11 -29 -18 -27 -6 2 -20 -4 -31 -15 -13 -13
-28 -17 -45 -14 -19 4 -33 -2 -49 -20 -16 -16 -29 -22 -43 -18 -16 5 -19 1
-17 -22 1 -16 11 -33 22 -40 11 -7 17 -12 13 -13 -5 0 -9 1 -10 2 -2 1 -13 -4
-25 -11 -21 -11 -23 -10 -25 16 0 15 -2 33 -3 38 -2 6 -3 15 -4 20 -4 28 -18
36 -45 25 -15 -5 -24 -14 -21 -20 3 -5 8 -19 10 -30 3 -17 0 -20 -15 -15 -47
15 -80 -23 -80 -90 0 -44 -17 -45 -28 -2 -7 26 -13 31 -32 29 -32 -3 -35 -8
-22 -37 13 -29 -1 -44 -18 -18 -11 17 -11 17 -6 0 4 -14 1 -18 -12 -15 -9 2
-24 -6 -34 -17 -19 -24 -26 -19 -34 23 -5 24 -3 32 8 32 8 0 31 15 52 33 37
31 37 33 29 81 -4 27 -14 51 -21 54 -6 2 -12 -2 -12 -8 0 -7 -14 -25 -31 -40
-35 -34 -48 -20 -30 31 15 44 6 51 -35 27 l-36 -21 6 21 c9 26 -9 29 -39 8
-11 -7 -36 -22 -55 -33 -51 -27 -120 -75 -120 -82 0 -4 -27 -27 -59 -51 -65
-49 -70 -63 -71 -170 0 -32 -7 -63 -15 -74 -19 -24 -30 -15 -16 13 16 28 -4
36 -23 9 -11 -16 -16 -18 -16 -7 0 8 5 20 12 27 25 25 -3 23 -34 -3 -30 -26
-33 -26 -37 -9 -4 25 -39 74 -52 74 -6 0 -33 -15 -62 -33 -29 -18 -58 -37 -65
-41 -9 -5 -11 2 -10 28 3 36 11 45 23 26 11 -18 25 -10 25 15 0 14 5 25 10 25
6 0 10 -5 10 -11 0 -6 11 -8 28 -5 15 4 48 7 75 8 26 1 47 5 47 9 0 10 -46 20
-64 13 -21 -8 -20 5 1 28 20 22 37 24 29 3 -4 -11 2 -15 22 -15 21 0 24 2 12
10 -13 9 -13 11 0 19 8 5 17 8 21 5 4 -2 10 0 14 6 4 6 -19 10 -64 10 -41 0
-71 -4 -71 -10 0 -5 8 -10 18 -10 15 -1 15 -2 -2 -15 -18 -14 -21 -13 -37 11
l-17 26 -16 -23 c-14 -20 -19 -22 -36 -11 -28 17 -38 15 -42 -10 -2 -14 -10
-23 -21 -23 -10 0 -22 -6 -26 -13 -6 -10 -10 -9 -14 7 -3 12 -12 21 -21 21
-20 0 -21 -19 -1 -34 8 -6 17 -25 21 -41 5 -26 3 -31 -16 -31 -13 0 -23 8 -26
23 -8 32 -24 29 -24 -4 -1 -25 -2 -26 -11 -10 -8 14 -7 27 5 52 9 18 16 45 16
59 0 15 14 56 30 93 35 77 37 89 10 66 -11 -10 -20 -22 -20 -27 0 -5 -12 -19
-26 -33 -26 -24 -44 -23 -44 3 0 8 -9 14 -20 14 -11 0 -20 5 -20 10 0 6 10 10
23 10 15 0 18 3 9 9 -15 9 -96 7 -162 -4 -30 -5 -42 -4 -35 2 23 23 122 37
315 43 223 7 204 3 475 93 143 47 156 50 275 53 423 10 529 19 675 54 44 11
114 26 155 34 41 8 85 18 98 22 17 5 22 2 22 -13 0 -29 9 -33 44 -18 17 7 49
17 70 22 22 4 42 14 44 22 4 10 -1 12 -19 8 -13 -4 -42 -9 -64 -12 -38 -5 -39
-4 -10 6 48 16 132 29 255 38 63 5 153 16 200 24 47 9 130 21 185 27 229 24
380 57 523 114 64 25 108 35 167 39 44 3 107 10 140 16 33 6 87 14 120 19 33
5 62 10 64 11 3 0 13 -6 23 -16z m-506 -488 c22 -14 54 -96 54 -139 0 -27 -15
-42 -25 -26 -9 14 -56 34 -72 31 -7 -1 -13 5 -13 14 0 17 -11 18 -60 9 l-32
-7 23 -13 24 -13 -26 -1 c-14 0 -28 -3 -32 -6 -3 -4 -25 -7 -49 -9 -38 -2 -47
3 -85 40 -24 23 -43 47 -43 54 0 15 65 14 82 -1 14 -14 188 -19 188 -6 0 3
-17 12 -37 18 -56 18 -61 28 -22 44 19 9 30 16 24 16 -5 1 -1 5 10 10 23 11
61 4 91 -15z m-9676 -445 c5 0 10 -12 12 -27 2 -17 9 -28 18 -29 28 0 79 -34
104 -67 23 -30 26 -43 25 -108 0 -75 -18 -124 -49 -139 -8 -4 -25 -12 -37 -18
-26 -14 -126 -8 -131 8 -2 5 -10 10 -18 10 -8 0 -17 7 -20 15 -4 8 -13 15 -22
15 -8 0 -12 3 -9 7 4 3 -1 11 -9 18 -16 11 -21 39 -25 134 -1 38 3 48 27 68
16 13 36 29 44 36 14 12 17 13 54 15 15 2 17 7 11 29 -3 15 -11 30 -15 33 -5
3 -6 16 -3 29 l6 24 14 -27 c7 -14 18 -26 23 -26z m3236 -1965 c54 -9 131 -18
169 -21 39 -2 117 -8 175 -14 58 -5 139 -12 180 -15 89 -7 120 -14 120 -26 0
-9 -107 -4 -230 12 -41 5 -127 12 -190 15 -122 6 -131 7 -254 22 -44 6 -85 8
-93 5 -7 -3 -13 -3 -13 0 0 6 29 37 34 37 2 0 47 -7 102 -15z"/>
<path d="M5375 4580 c-3 -5 -13 -6 -23 -3 -10 2 -31 -3 -47 -11 -20 -11 -24
-16 -12 -16 9 0 17 -7 17 -15 0 -8 12 -18 26 -21 l27 -7 -28 -14 c-15 -8 -23
-18 -19 -23 18 -16 102 -38 127 -33 23 5 26 2 29 -28 3 -31 9 -37 68 -67 70
-36 94 -36 142 -2 15 11 33 20 40 20 20 0 35 13 42 37 6 18 2 22 -24 28 -16 4
-30 10 -30 14 0 9 -116 85 -180 117 -45 23 -146 38 -155 24z"/>
<path d="M5516 4101 c-3 -5 -1 -22 5 -38 9 -27 42 -52 77 -59 30 -6 25 -16 -5
-12 -22 3 -34 0 -38 -9 -2 -8 -9 -11 -15 -8 -5 3 -10 2 -10 -4 0 -15 39 -34
60 -28 12 3 20 -2 23 -14 7 -28 27 -23 27 6 0 26 10 30 63 26 34 -3 52 15 60
59 5 31 2 38 -25 60 -28 21 -43 25 -124 27 -51 1 -96 -1 -98 -6z"/>
<path d="M4670 3380 c0 -8 -8 -10 -21 -7 -18 5 -20 2 -15 -18 3 -13 1 -27 -4
-30 -6 -4 -8 -11 -4 -16 3 -6 -1 -18 -9 -27 -21 -23 -4 -99 31 -139 23 -27 25
-27 36 -9 6 11 22 30 35 43 21 20 25 34 25 83 1 41 -3 60 -11 60 -7 0 -16 15
-21 32 -8 31 -42 53 -42 28z"/>
<path d="M4198 3362 c-7 -10 -21 -21 -30 -25 -10 -3 -15 -12 -12 -20 6 -16
-22 -31 -31 -17 -4 6 -14 10 -23 10 -12 0 -10 -4 8 -17 14 -9 27 -17 28 -19 3
-2 -23 -47 -75 -130 -35 -55 -191 -363 -223 -442 -18 -42 -36 -82 -42 -88 -5
-7 -10 -20 -12 -30 -8 -36 -26 -74 -35 -74 -5 0 -18 -3 -28 -7 -17 -6 -17 -6
0 14 9 11 17 25 17 32 0 8 6 11 15 7 11 -4 15 1 15 19 0 18 -4 23 -16 18 -10
-4 -17 1 -21 15 -3 13 -10 19 -19 15 -9 -3 -14 3 -15 18 -1 13 -2 37 -3 52 -1
16 4 32 12 36 11 6 12 13 4 27 -7 13 -6 39 4 84 7 36 12 71 9 78 -2 6 -1 12 4
12 4 0 8 13 8 30 0 16 -3 27 -7 25 -3 -2 -4 9 -2 26 2 16 -1 36 -8 44 -10 11
-9 18 4 31 9 9 15 21 13 28 -5 14 -57 21 -57 7 0 -6 7 -8 15 -5 9 4 15 0 15
-9 0 -8 -7 -18 -17 -21 -14 -6 -14 -8 -1 -19 24 -19 29 -45 10 -57 -10 -6 -13
-13 -7 -17 6 -5 11 -30 12 -57 2 -48 2 -49 -12 -22 -8 14 -12 33 -9 41 8 20
-14 55 -31 49 -11 -5 -12 -11 -4 -25 5 -10 14 -44 20 -74 8 -44 7 -60 -6 -85
-12 -24 -21 -30 -36 -25 -15 5 -19 2 -19 -17 0 -13 3 -18 8 -12 4 6 17 13 30
17 19 4 22 2 18 -10 -4 -9 -1 -23 6 -32 8 -10 5 -9 -10 3 -26 23 -42 14 -19
-11 29 -33 36 -67 26 -129 -16 -102 -18 -128 -12 -148 5 -17 7 -18 17 -5 6 9
31 19 56 23 61 9 170 47 170 58 0 5 9 6 20 3 11 -3 20 -3 20 2 0 8 13 15 92
47 27 11 36 19 32 30 -4 11 0 16 10 16 9 0 16 -7 16 -15 0 -13 4 -13 23 -3 12
7 30 20 40 28 16 12 19 12 27 0 7 -10 10 -11 10 -2 0 6 5 12 11 12 6 0 26 12
44 26 29 22 33 29 25 50 -8 20 -7 24 10 24 14 0 20 7 20 24 0 13 7 26 15 30 8
3 12 12 9 21 -7 18 14 20 36 2 19 -15 25 -61 8 -54 -7 2 -12 10 -10 16 1 6 -5
11 -13 11 -8 0 -15 -5 -15 -11 0 -5 -5 -7 -12 -3 -7 5 -9 2 -5 -9 3 -8 -1 -21
-9 -27 -16 -14 -19 -40 -4 -40 6 0 10 5 10 11 0 6 9 8 20 4 22 -7 26 5 8 23
-9 9 -3 10 23 6 54 -9 68 -7 102 16 18 11 44 26 59 32 16 7 34 27 42 48 8 19
15 29 15 23 1 -7 5 -13 10 -13 10 0 9 26 -2 36 -10 11 -8 26 2 19 5 -3 13 0
17 6 3 6 0 15 -7 20 -8 5 -9 9 -3 9 5 0 15 -5 21 -11 8 -8 13 -7 18 1 8 13
-14 32 -27 24 -4 -3 -8 1 -8 9 0 10 8 13 25 9 14 -2 25 -2 25 2 0 8 -106 60
-153 76 -56 18 -141 107 -179 188 -17 37 -32 69 -34 71 -2 2 -17 -10 -33 -28
-28 -30 -64 -41 -76 -22 -3 5 -1 12 5 16 6 4 4 12 -5 22 -9 8 -14 17 -12 19 3
3 38 8 105 13 26 2 10 21 -19 21 -17 0 -28 4 -24 10 11 18 -14 10 -27 -8z"/>
<path d="M5699 3295 c-3 -2 -47 -5 -97 -6 -70 -2 -92 -5 -92 -15 0 -8 -7 -14
-15 -14 -8 0 -17 -10 -19 -22 -13 -63 -15 -107 -6 -113 5 -3 10 0 10 7 0 8 8
21 19 30 10 8 20 20 22 24 14 32 150 94 205 94 28 0 28 0 10 -36 -23 -42 -7
-50 20 -10 13 19 24 39 24 44 0 13 -71 28 -81 17z"/>
<path d="M3438 3220 c2 -16 8 -30 13 -30 15 0 10 -14 -17 -44 -23 -26 -26 -27
-43 -12 -22 20 -35 21 -28 1 4 -8 2 -17 -3 -20 -19 -12 -10 -22 20 -22 18 0
36 -7 44 -19 8 -10 18 -16 22 -12 4 5 -1 18 -12 29 -14 16 -15 23 -6 26 6 3
12 10 12 16 0 21 46 16 60 -6 9 -16 10 -22 1 -25 -17 -6 6 -32 28 -32 10 0 22
-14 30 -35 7 -19 17 -35 22 -35 5 0 9 -4 9 -10 0 -5 -7 -7 -15 -4 -8 4 -15 2
-15 -4 0 -5 7 -15 15 -22 10 -9 15 -9 15 -1 0 6 5 11 11 11 6 0 9 -6 6 -13 -3
-7 1 -24 9 -38 7 -13 13 -35 14 -48 0 -17 4 -22 16 -17 9 3 18 6 20 6 2 0 0 8
-5 18 -12 25 -33 85 -34 99 0 7 -5 9 -10 6 -6 -4 -7 -1 -1 8 10 16 8 44 -6 74
-4 11 -11 28 -14 38 -3 9 -12 17 -21 17 -19 0 -19 -14 0 -30 9 -7 14 -19 11
-26 -3 -7 -1 -16 4 -19 6 -4 10 -11 10 -17 0 -20 -25 9 -54 65 -15 30 -44 71
-62 90 -21 21 -30 38 -24 42 13 8 3 25 -14 25 -8 0 -11 -10 -8 -30z"/>
<path d="M4697 164 c-13 -13 -7 -24 18 -36 19 -8 22 -14 13 -20 -9 -5 -4 -8
14 -8 36 0 58 -10 58 -24 0 -17 46 -37 65 -30 8 4 15 1 15 -4 0 -6 8 -12 18
-15 9 -2 -2 -8 -28 -14 -38 -9 -21 -11 110 -11 85 0 146 3 135 5 -11 3 -25 9
-30 14 -10 7 -130 30 -144 27 -3 -1 -20 6 -38 15 -18 9 -39 17 -47 17 -9 0
-13 6 -11 13 3 7 -20 23 -56 40 -80 37 -84 39 -92 31z"/>
</g>
</svg>
