<?xml version="1.0" standalone="no"?>
<!DOCTYPE svg PUBLIC "-//W3C//DTD SVG 20010904//EN"
 "http://www.w3.org/TR/2001/REC-SVG-20010904/DTD/svg10.dtd">
<svg version="1.0" xmlns="http://www.w3.org/2000/svg"
 width="1473.000000pt" height="983.000000pt" viewBox="0 0 1473.000000 983.000000"
 preserveAspectRatio="xMidYMid meet">
<metadata>
Created by potrace 1.16, written by Peter Selinger 2001-2019
</metadata>
<g transform="translate(0.000000,983.000000) scale(0.100000,-0.100000)"
fill="#000000" stroke="none">
<path d="M12738 9779 c-15 -11 -48 -22 -73 -24 -54 -4 -95 -28 -95 -54 0 -28
-30 -84 -59 -107 -26 -22 -26 -22 -8 -58 9 -20 17 -44 17 -54 0 -13 2 -14 9
-4 7 11 10 10 15 -3 8 -23 8 -25 -8 -25 -18 0 -30 -30 -17 -43 6 -6 1 -19 -15
-36 -13 -14 -22 -32 -19 -39 2 -7 -4 -32 -15 -55 -28 -63 -29 -82 -3 -82 11 0
25 -3 29 -7 4 -5 16 -8 26 -8 10 0 18 -6 18 -14 0 -20 79 -86 102 -86 10 0 21
-7 24 -15 4 -8 12 -15 19 -15 13 0 25 -21 25 -46 0 -9 -4 -13 -9 -9 -5 3 -12
1 -16 -5 -3 -5 -17 -10 -31 -10 -14 0 -24 -6 -24 -14 0 -8 -4 -18 -10 -21 -12
-7 -48 16 -46 29 0 5 -18 16 -42 24 -24 8 -40 17 -37 21 4 3 9 5 12 3 4 -2 12
14 19 34 17 49 2 74 -27 48 -10 -9 -16 -20 -14 -24 3 -4 -2 -10 -9 -13 -22 -9
-17 -69 6 -75 10 -2 18 -12 18 -22 0 -19 -25 -34 -41 -24 -5 3 -9 -4 -9 -16 0
-12 -5 -30 -11 -41 -13 -25 4 -49 33 -49 22 0 34 -25 20 -43 -6 -6 -13 -29
-17 -50 -4 -20 -11 -40 -17 -43 -5 -4 -5 -11 1 -18 6 -7 12 -21 14 -32 2 -10
7 -27 12 -37 4 -10 2 -23 -5 -32 -7 -8 -9 -15 -4 -15 5 0 3 -4 -5 -9 -19 -12
-5 -30 18 -24 13 3 21 -2 26 -16 3 -12 11 -21 17 -21 6 0 24 -14 40 -32 25
-28 31 -31 48 -20 28 17 40 15 40 -7 0 -15 7 -20 33 -19 51 0 94 -13 113 -33
21 -23 11 -53 -15 -44 -22 7 -44 -16 -35 -39 3 -9 1 -22 -4 -29 -7 -8 -7 -18
-2 -27 7 -12 12 -12 34 0 14 7 26 17 26 22 0 5 9 18 19 30 l20 20 11 -42 c9
-34 9 -45 -2 -58 -35 -42 -41 -68 -24 -101 9 -17 21 -31 28 -31 6 0 33 -22 60
-50 45 -46 48 -52 42 -86 -6 -33 -5 -36 17 -32 15 2 25 11 27 23 5 34 24 75
34 75 5 0 17 9 26 19 13 14 26 18 55 14 36 -5 37 -7 32 -37 -6 -37 16 -72 40
-62 13 5 16 17 12 58 -2 33 1 60 9 73 9 14 11 31 5 57 -9 38 -4 125 8 143 9
13 6 341 -4 383 -4 18 -3 38 2 45 21 26 33 79 22 98 -7 14 -7 31 2 57 13 37
15 46 23 137 2 28 7 75 11 105 8 61 7 116 -1 143 -4 12 0 17 13 17 36 0 42
-14 46 -103 3 -89 11 -108 53 -133 16 -9 17 -14 6 -27 -10 -12 -11 -21 -2 -36
11 -21 38 -23 98 -5 12 3 22 2 22 -4 0 -5 9 -12 21 -15 20 -5 21 -10 13 -69
-13 -96 -9 -139 14 -157 11 -9 25 -34 31 -56 9 -33 8 -42 -4 -51 -8 -6 -15
-18 -15 -27 0 -25 -87 -59 -132 -52 -33 6 -38 4 -52 -24 -9 -16 -16 -45 -16
-64 0 -18 -4 -37 -9 -42 -13 -15 -21 -74 -11 -80 6 -3 10 -15 10 -25 0 -10 15
-28 35 -40 36 -22 45 -40 22 -40 -8 0 -22 -9 -33 -21 -15 -17 -16 -22 -4 -29
12 -7 11 -12 -5 -30 -22 -25 -55 -114 -46 -127 14 -20 56 -29 105 -22 48 8 50
8 81 -28 l31 -36 115 -3 c212 -6 245 -19 193 -77 -16 -17 -29 -33 -29 -34 -1
-3 -60 -13 -120 -19 -33 -4 -68 -13 -77 -21 -9 -8 -21 -12 -26 -9 -5 3 -24 1
-41 -5 -24 -9 -40 -7 -74 6 -35 13 -51 14 -91 5 -27 -6 -58 -17 -70 -25 -11
-8 -34 -15 -51 -15 -31 0 -115 -34 -115 -46 0 -13 63 -139 72 -142 4 -2 8 -13
8 -23 0 -33 30 -81 46 -75 8 3 14 -1 14 -9 0 -8 5 -15 10 -15 6 0 8 -11 4 -26
-5 -19 0 -32 21 -54 15 -16 25 -32 22 -37 -3 -5 10 -18 29 -28 20 -10 40 -27
45 -38 6 -11 17 -16 25 -13 8 3 12 2 9 -3 -3 -5 6 -22 20 -37 20 -21 28 -24
39 -15 22 18 59 3 85 -34 13 -19 30 -35 38 -35 8 0 26 -12 40 -26 34 -34 49
-37 178 -38 61 -1 116 -5 122 -9 7 -4 29 -5 49 -1 l37 7 -6 -46 c-5 -35 -3
-46 9 -51 43 -17 57 3 27 36 -12 13 -14 21 -6 26 6 4 12 16 14 27 3 11 13 21
23 23 16 4 18 0 12 -32 -5 -28 -3 -38 9 -42 8 -3 15 -17 15 -29 0 -27 51 -68
78 -63 12 3 17 14 18 43 1 41 28 115 42 115 16 -1 42 -28 42 -44 0 -19 21 -21
38 -3 7 6 23 13 35 13 12 1 37 5 55 9 30 7 32 6 32 -20 0 -25 3 -27 30 -22 23
5 35 1 50 -15 l20 -22 0 22 c0 12 11 29 25 38 24 15 27 15 44 0 17 -16 18 -9
24 165 9 230 9 557 1 597 -5 27 -9 30 -25 22 -10 -6 -37 -10 -61 -9 -24 1 -70
-3 -103 -9 -66 -11 -248 -9 -280 2 -40 15 -90 45 -96 58 -3 7 -11 23 -18 36
-10 20 -9 26 10 41 22 18 22 19 6 69 -10 28 -17 62 -17 75 0 42 -23 52 -77 33
-27 -9 -70 -23 -98 -31 -49 -14 -50 -14 -72 11 -28 30 -30 80 -5 114 9 14 24
43 32 65 12 32 21 41 44 43 18 2 40 -4 57 -17 36 -27 82 -27 125 0 45 27 65
15 94 -57 21 -51 22 -62 12 -118 -28 -148 -29 -140 20 -150 7 -2 30 -10 50
-20 71 -31 155 -14 165 34 7 38 39 50 148 54 l90 3 3 896 2 897 -726 0 c-645
0 -725 -2 -714 -15 10 -12 9 -15 -6 -15 -11 1 -30 7 -44 15 -20 11 -73 14
-245 14 -205 0 -222 -1 -247 -20z m1189 -42 c7 -5 18 -28 24 -51 6 -22 18 -58
26 -78 14 -34 14 -40 -1 -63 -21 -31 -51 -32 -71 -1 -8 13 -34 31 -56 42 -69
30 -79 94 -24 143 36 32 70 34 102 8z"/>
<path d="M14512 6212 c-3 -9 -7 -36 -7 -59 0 -34 6 -48 32 -75 18 -18 39 -53
48 -78 9 -25 33 -81 55 -125 22 -44 46 -105 54 -135 15 -55 15 -54 15 108 1
94 -3 162 -8 162 -5 0 -12 9 -16 19 -3 11 -15 23 -26 26 -15 5 -19 16 -19 50
0 34 -4 45 -19 50 -11 3 -23 14 -26 23 -3 9 -21 25 -40 34 -34 17 -36 17 -43
0z"/>
<path d="M10434 5826 c-3 -9 -3 -35 0 -58 4 -24 9 -85 12 -136 5 -74 3 -100
-10 -127 -19 -39 -19 -39 -45 -23 -15 9 -25 6 -55 -17 -40 -30 -55 -29 -35 3
19 30 -2 71 -41 78 -38 8 -47 19 -68 85 -20 62 -46 76 -62 34 -12 -31 0 -87
31 -148 16 -30 20 -62 22 -172 2 -161 -2 -171 -67 -136 -24 13 -48 21 -55 17
-6 -4 -11 -29 -11 -56 0 -48 -1 -49 -85 -125 -67 -61 -85 -83 -85 -105 0 -27
39 -111 66 -141 8 -8 14 -21 14 -28 0 -7 11 -27 24 -44 30 -39 43 -122 27
-169 -14 -40 3 -67 72 -113 25 -16 46 -35 46 -42 1 -6 -18 -14 -41 -18 l-43
-8 -117 124 c-103 108 -120 131 -138 185 -14 42 -20 81 -18 120 3 53 5 59 28
64 42 10 37 42 -11 68 -41 24 -41 24 -18 36 13 6 25 22 27 34 3 17 -2 22 -20
22 -13 0 -33 6 -43 14 -18 13 -17 15 13 57 42 57 42 74 0 64 -18 -4 -39 -8
-47 -8 -8 -1 -30 22 -50 51 -25 36 -42 52 -57 52 -13 0 -33 4 -46 9 -54 20
-77 21 -93 5 -9 -10 -13 -24 -10 -36 11 -31 -12 -49 -55 -42 -32 5 -40 3 -54
-17 -22 -32 -20 -52 9 -79 14 -13 25 -34 25 -47 0 -15 9 -27 25 -35 26 -12 31
-23 16 -33 -5 -3 -17 -29 -25 -58 -8 -28 -28 -67 -44 -86 -28 -34 -28 -34 -55
-16 -26 17 -61 17 -99 1 -13 -6 -19 -2 -23 17 -7 27 6 59 38 94 16 19 18 25 7
38 -22 27 -69 16 -119 -29 l-23 -21 -17 23 c-48 68 -55 74 -85 66 -17 -4 -41
-25 -63 -55 -19 -27 -40 -49 -45 -49 -7 0 -9 19 -6 50 4 41 13 60 47 101 24
28 40 56 37 64 -10 26 -94 -8 -144 -59 -37 -36 -46 -53 -53 -97 -5 -30 -6 -69
-3 -86 5 -27 1 -39 -25 -68 -17 -20 -31 -40 -31 -45 0 -5 -9 -14 -21 -21 -30
-15 -49 3 -31 32 16 26 7 39 -26 39 -57 -1 -105 -49 -121 -121 -15 -68 -36
-111 -69 -142 l-30 -29 -7 41 c-4 24 -12 41 -20 41 -7 0 -32 -26 -55 -57 -33
-47 -40 -64 -35 -88 2 -16 8 -46 11 -66 4 -26 -4 -67 -29 -150 -19 -63 -38
-136 -42 -162 -7 -54 -52 -116 -74 -102 -16 9 -7 150 15 235 8 30 14 70 14 90
0 22 16 67 44 121 53 103 74 193 57 248 -13 45 -13 192 -1 271 18 107 33 295
27 321 -7 29 -28 42 -51 33 -19 -7 -26 -26 -37 -109 -5 -38 -16 -104 -24 -145
-8 -41 -14 -76 -15 -77 0 -2 -4 -3 -9 -3 -5 0 -12 12 -16 27 -4 16 -11 34 -17
40 -16 19 -53 15 -73 -8 -15 -16 -26 -19 -56 -14 -38 7 -44 3 -73 -40 -14 -19
-14 -19 -50 0 -36 19 -36 19 -57 -2 -20 -20 -21 -25 -10 -85 6 -36 11 -118 11
-184 0 -93 5 -135 22 -192 25 -85 18 -157 -17 -176 -11 -6 -23 -15 -27 -21
-14 -19 -8 -54 12 -65 27 -15 27 -91 -1 -196 -89 -334 -121 -485 -106 -500 12
-12 106 27 121 52 11 16 26 24 44 24 15 0 45 9 67 20 45 23 51 21 34 -12 -25
-47 -140 -216 -159 -233 -11 -10 -20 -29 -20 -42 0 -21 4 -23 50 -23 43 0 50
-3 50 -19 0 -45 -21 -50 -169 -44 -143 6 -182 0 -223 -35 -10 -8 -31 -15 -48
-14 -26 1 -30 -3 -30 -26 0 -15 7 -47 16 -71 8 -24 13 -46 10 -48 -7 -8 -36
54 -36 77 0 11 -9 38 -20 60 -11 22 -20 52 -19 67 0 27 1 27 9 6 5 -13 13 -23
18 -23 11 0 42 33 42 46 0 5 14 27 30 48 17 22 30 47 30 55 0 26 53 69 94 76
51 10 63 26 72 91 8 71 -4 87 -45 56 -36 -26 -35 -27 -73 83 -16 44 -37 92
-48 107 -11 15 -20 31 -20 36 0 5 -9 20 -20 34 -18 24 -46 89 -57 136 -3 13
-16 30 -29 39 -13 8 -24 21 -24 28 0 27 -38 48 -75 41 -35 -7 -35 -7 -35 29 0
19 -13 68 -30 108 -35 86 -93 238 -109 287 -6 19 -29 55 -50 79 -32 37 -42 43
-63 38 -45 -12 -62 -89 -30 -135 10 -15 29 -55 42 -90 18 -51 21 -68 12 -87
-14 -31 -20 -31 -63 -2 -19 12 -47 28 -63 35 -23 10 -27 17 -21 35 4 12 8 33
9 47 2 37 -28 37 -134 0 -97 -33 -120 -33 -120 -1 0 22 47 62 119 101 35 19
46 31 46 49 0 46 -27 49 -105 11 -85 -41 -105 -33 -60 26 32 43 38 72 16 80
-24 9 -72 -23 -114 -78 -22 -29 -50 -62 -61 -74 -15 -15 -21 -34 -21 -64 0
-46 -46 -192 -84 -268 -13 -26 -27 -65 -31 -85 -4 -20 -11 -37 -15 -37 -14 0
-18 45 -9 95 6 28 13 82 16 120 3 45 12 80 24 97 25 34 24 59 -1 65 -23 6 -26
19 -6 26 8 3 38 52 66 109 72 145 92 298 40 298 -22 0 -28 -11 -57 -104 -22
-73 -42 -88 -84 -63 -33 18 -59 22 -59 8 0 -25 -34 -21 -168 21 -19 5 -38 6
-42 2 -16 -17 -119 -221 -139 -275 -11 -30 -22 -82 -26 -117 -4 -34 -11 -64
-15 -67 -4 -3 -11 -85 -14 -182 -4 -98 -14 -239 -22 -315 -18 -152 -16 -340 3
-359 9 -9 32 7 103 74 50 48 95 87 101 87 18 0 9 -20 -28 -62 -137 -154 -184
-212 -194 -235 -7 -19 -16 -23 -53 -23 l-45 0 -15 54 c-10 35 -26 63 -44 78
-35 28 -46 56 -71 180 -10 53 -23 103 -27 110 -5 7 -11 124 -14 260 -4 216 -7
249 -22 264 -14 14 -22 16 -42 6 -31 -14 -51 2 -61 50 -4 18 -19 53 -33 77
-24 42 -27 43 -65 38 -60 -8 -63 -16 -44 -104 26 -119 38 -186 35 -188 -15
-12 -71 -35 -87 -35 -20 0 -37 -32 -26 -50 3 -5 -11 -16 -31 -25 -39 -16 -59
-35 -74 -72 -20 -49 -47 -11 -31 45 5 17 6 34 2 37 -5 2 -13 30 -20 62 -6 32
-20 72 -31 88 -25 38 -25 85 -2 127 10 18 28 60 39 93 12 33 31 83 44 111 12
29 19 59 16 68 -9 23 -69 21 -92 -4 -10 -11 -22 -20 -27 -20 -17 0 -7 31 34
107 22 43 47 90 55 105 18 36 11 59 -27 81 -27 16 -29 22 -27 69 2 48 0 51
-27 61 -26 9 -31 7 -48 -17 -17 -22 -27 -26 -69 -26 -45 0 -51 -3 -62 -27 -7
-16 -20 -40 -30 -55 -17 -25 -27 -47 -83 -195 -21 -57 -23 -71 -16 -165 8
-124 6 -691 -3 -765 -6 -53 -18 -72 -117 -201 -31 -41 -35 -43 -73 -37 -54 8
-63 20 -38 47 30 34 93 147 100 180 6 28 -17 68 -39 68 -22 0 -174 -134 -191
-168 -17 -36 -42 -49 -61 -33 -22 18 -20 54 4 76 11 10 20 26 20 37 0 10 4 18
8 18 11 0 30 57 37 115 5 38 2 65 -14 110 -27 77 -26 111 4 177 41 88 29 154
-27 146 -17 -2 -31 -19 -53 -65 -16 -34 -36 -68 -42 -75 -7 -6 -13 -20 -13
-31 0 -10 -5 -17 -11 -15 -5 2 -12 40 -15 84 -6 113 12 177 74 256 58 74 75
105 67 118 -11 18 -24 10 -84 -51 -32 -34 -64 -58 -69 -55 -7 4 -9 45 -5 114
5 91 3 109 -10 121 -28 22 -47 6 -47 -40 0 -26 -15 -76 -39 -133 -21 -50 -46
-125 -56 -166 -26 -110 -28 -113 -81 -105 -26 3 -52 2 -64 -5 -17 -9 -32 -7
-73 9 -29 11 -59 22 -68 25 -14 4 -15 12 -7 58 11 60 43 101 90 114 33 10 57
38 44 51 -4 4 -48 7 -98 6 -68 -2 -100 -7 -134 -23 -24 -12 -44 -26 -44 -32 0
-5 -8 -22 -19 -36 -19 -28 -78 -186 -88 -237 -3 -16 -18 -46 -33 -65 -36 -49
-54 -98 -52 -147 2 -27 -5 -57 -18 -80 -17 -32 -19 -49 -14 -113 6 -74 19
-100 51 -100 13 0 49 65 89 160 l23 55 0 -45 c0 -25 -6 -63 -14 -85 -8 -22
-15 -48 -15 -57 0 -10 -7 -18 -15 -18 -9 0 -21 -12 -27 -27 -17 -39 -16 -39
-41 -16 -12 11 -33 24 -45 28 -21 6 -23 4 -17 -14 5 -16 3 -20 -9 -15 -9 4
-34 -13 -68 -45 -29 -28 -54 -47 -56 -41 -2 5 6 36 18 68 44 119 7 144 -63 42
-48 -71 -77 -88 -77 -46 0 14 5 28 10 31 16 10 11 44 -10 65 -26 26 -44 27
-31 1 8 -14 4 -24 -17 -45 -35 -33 -43 -33 -69 2 -21 29 -135 82 -176 82 -12
0 -33 7 -45 16 -25 17 -101 14 -193 -8 -39 -9 -53 -8 -82 5 -42 20 -136 23
-141 5 -2 -7 -8 -29 -14 -48 -10 -38 -13 -35 -32 49 -7 29 -30 91 -51 136 -38
83 -71 119 -144 158 -33 17 -130 37 -183 37 -22 0 -32 4 -29 13 3 9 31 11 105
10 56 -2 102 0 102 3 0 21 -34 63 -60 74 -39 16 -38 25 5 52 34 23 47 59 25
73 -17 11 -11 24 20 40 31 16 39 42 18 63 -17 17 -119 15 -145 -3 -17 -12 -28
-13 -49 -4 -16 5 -67 9 -113 7 l-85 -3 -6 35 c-12 65 -75 160 -107 160 -7 0
-28 14 -47 30 -43 38 -156 90 -196 90 -17 0 -44 7 -60 15 -16 9 -49 18 -74 21
-30 5 -56 17 -82 40 -21 19 -45 34 -53 34 -30 0 -91 -26 -114 -48 -13 -12 -33
-22 -45 -22 -21 0 -31 -11 -140 -151 -34 -43 -81 -89 -110 -108 -28 -17 -57
-42 -65 -54 -25 -39 -176 -140 -221 -148 -22 -4 -53 -11 -69 -15 -37 -9 -36
11 4 81 29 51 30 57 18 92 -17 50 -28 63 -51 63 -11 0 -26 7 -34 15 -29 29
-39 20 -120 -100 -31 -47 -61 -85 -66 -85 -4 0 -8 -145 -8 -322 l0 -323 102 0
c96 0 103 -1 103 -20 0 -16 -8 -21 -35 -23 -41 -4 -83 -40 -111 -95 -22 -41
-48 -49 -51 -14 -6 93 -16 -199 -17 -535 l-1 -408 23 -1 22 0 -23 -16 c-19
-14 -22 -24 -22 -90 0 -74 0 -75 44 -125 24 -28 57 -74 72 -102 29 -53 77
-207 67 -216 -8 -8 -63 63 -69 90 -20 91 -77 200 -104 200 -7 0 -10 -407 -10
-1185 l0 -1185 2590 -1 c4233 -2 3698 -4 3677 19 -21 23 -22 85 -1 117 10 15
35 30 69 39 29 9 58 23 66 32 34 41 188 99 414 155 93 23 152 32 261 36 152 6
205 1 229 -23 22 -23 20 -109 -5 -149 -37 -59 -20 -217 24 -229 29 -8 220 -7
240 0 21 8 2 34 -24 34 -25 0 -32 38 -16 83 19 55 28 61 69 46 31 -11 45 -10
98 5 111 31 325 39 518 21 189 -18 218 -15 306 35 50 29 128 57 220 80 64 16
285 23 302 9 8 -7 29 -7 68 1 44 9 63 9 86 0 16 -7 29 -16 29 -20 0 -24 -41
-30 -239 -35 -199 -5 -216 -7 -274 -31 -71 -30 -97 -50 -97 -75 0 -24 78 -89
108 -89 15 0 37 -13 58 -35 l33 -35 2945 0 2946 0 0 1944 c0 1763 -1 1944 -16
1950 -9 3 -27 6 -40 6 -21 0 -24 4 -24 38 0 27 -7 45 -21 58 -31 28 -41 53
-48 114 l-6 55 -43 0 c-54 0 -62 13 -90 145 l-20 94 20 107 c23 119 20 154
-14 163 -40 10 -105 6 -117 -7 -7 -9 -10 -74 -10 -186 l1 -173 -27 -28 c-21
-22 -26 -35 -21 -54 4 -15 2 -26 -3 -26 -6 0 -22 -11 -37 -25 -31 -29 -46 -31
-64 -10 -7 8 -22 15 -34 15 -12 0 -31 6 -41 14 -17 13 -18 18 -8 48 7 18 33
104 58 192 57 198 71 226 135 267 39 25 53 41 62 72 12 38 11 41 -20 68 -39
35 -54 35 -127 8 -33 -12 -66 -18 -81 -15 -20 5 -24 12 -24 46 0 22 -4 40 -9
40 -14 0 -50 -80 -60 -135 -18 -88 -29 -116 -66 -156 -38 -42 -39 -47 -40
-239 0 -59 -4 -71 -42 -130 -65 -100 -155 -210 -172 -210 -18 0 -65 47 -132
130 -24 30 -59 72 -76 93 -41 46 -43 86 -8 121 25 25 33 60 16 70 -4 3 -16 -3
-26 -14 -21 -23 -41 -13 -56 27 -5 13 -16 23 -25 23 -15 0 -16 16 -9 170 6
146 5 173 -8 194 -9 13 -19 48 -22 77 -4 30 -16 97 -27 149 -16 75 -26 100
-48 120 -16 15 -35 43 -44 63 -8 21 -22 40 -31 43 -20 8 -45 -13 -45 -37 0
-28 -36 -59 -69 -59 -23 0 -39 12 -79 60 l-50 60 1 80 c0 62 -3 85 -16 97 -15
15 -17 14 -26 -8 -5 -13 -15 -55 -21 -93 -21 -128 -60 -183 -60 -84 0 28 -4
65 -10 82 -5 17 -12 48 -15 70 -6 36 -8 38 -36 34 -25 -4 -33 0 -45 24 -15 30
-37 36 -51 16 -7 -12 -17 -69 -53 -298 -6 -41 -18 -100 -26 -131 -8 -30 -14
-79 -14 -107 0 -60 -16 -68 -49 -26 -26 32 -29 137 -7 217 16 60 41 245 34
252 -3 3 -19 -2 -37 -11 -32 -16 -33 -16 -60 10 -15 14 -37 26 -50 26 -61 0
-78 35 -94 192 -10 87 -16 113 -27 113 -30 0 -41 -46 -35 -135 13 -160 9 -175
-50 -186 -28 -5 -36 -13 -54 -56 -12 -28 -21 -64 -21 -80 0 -28 59 -143 100
-195 12 -16 20 -41 20 -65 0 -25 8 -51 22 -70 20 -28 21 -43 22 -197 1 -91 -3
-219 -8 -283 -6 -75 -6 -118 1 -118 5 0 39 25 76 55 36 30 69 55 72 55 22 0
-9 -41 -87 -115 -51 -49 -121 -120 -157 -159 -35 -39 -79 -88 -98 -108 -40
-44 -56 -47 -71 -13 -17 37 -83 35 -164 -6 -61 -31 -62 -31 -77 -11 -9 11 -37
30 -64 42 -51 24 -80 57 -91 105 -11 45 -34 75 -58 75 -28 0 -88 22 -88 32 0
4 -18 11 -40 14 -46 7 -47 14 -25 88 19 64 18 90 -2 49 -9 -18 -23 -33 -31
-33 -11 0 -12 -3 -4 -13 7 -8 9 -29 5 -51 -4 -29 -15 -43 -47 -66 -22 -15 -57
-45 -76 -65 -65 -69 -108 -95 -159 -95 -53 0 -84 18 -106 60 -23 44 -19 60 15
67 35 6 41 26 8 21 -18 -2 -22 1 -20 17 2 11 4 44 4 73 1 45 5 56 24 69 32 20
31 37 -2 29 -23 -6 -25 -5 -19 16 9 30 9 30 1 51 -15 34 -26 16 -26 -42 0 -33
-3 -62 -7 -64 -5 -3 -25 -7 -47 -8 l-39 -4 -33 99 c-45 135 -84 210 -109 214
-21 3 -21 3 2 95 13 53 27 146 31 218 7 116 10 130 35 162 15 20 27 42 27 50
0 21 -33 47 -60 47 -13 0 -32 -7 -42 -17 -17 -15 -19 -15 -38 2 -15 13 -29 16
-59 11 -55 -8 -64 11 -62 133 2 114 -23 276 -48 311 -21 30 -58 38 -67 16z
m2356 -1419 c-29 -189 -41 -311 -38 -372 3 -46 1 -50 -21 -53 -13 -2 -27 1
-30 7 -8 12 2 96 29 256 11 61 22 142 25 182 4 61 3 73 -12 81 -14 8 -15 14
-4 41 7 17 25 43 40 58 l26 28 3 -43 c2 -23 -7 -106 -18 -185z m-3601 193 c15
-7 18 -18 14 -52 -7 -57 54 -346 84 -403 6 -11 16 -60 22 -110 7 -49 24 -132
39 -184 24 -83 30 -96 55 -105 31 -12 37 -27 7 -19 -17 5 -20 0 -20 -29 0 -20
9 -46 20 -61 12 -14 16 -28 11 -32 -22 -13 11 -66 54 -87 63 -31 70 -25 100
90 7 24 51 59 62 49 3 -4 -8 -22 -24 -41 -20 -21 -33 -50 -37 -79 -4 -24 -13
-53 -21 -63 -8 -11 -15 -40 -15 -66 0 -43 2 -48 22 -48 12 0 41 -10 66 -21 33
-17 49 -19 65 -12 23 11 130 5 125 -6 -44 -86 -43 -81 -27 -109 13 -24 21 -27
64 -27 47 0 50 -1 50 -26 0 -26 27 -66 88 -132 15 -17 33 -49 39 -71 7 -23 26
-63 44 -91 39 -63 44 -79 49 -160 2 -37 8 -72 13 -78 14 -20 34 -170 31 -234
-3 -41 1 -65 10 -77 12 -14 11 -16 -12 -16 l-25 0 1 108 c1 84 -4 121 -21 175
-12 38 -19 79 -16 95 6 30 -41 147 -69 170 -9 8 -28 45 -43 83 -19 49 -35 74
-53 84 -14 7 -37 25 -50 39 -13 14 -36 28 -52 31 -15 4 -33 13 -41 22 -7 9
-30 26 -50 39 -25 16 -38 32 -38 47 0 23 -37 63 -74 82 -11 6 -23 19 -25 30
-2 11 -8 23 -15 27 -26 18 -42 6 -59 -42 -13 -36 -28 -57 -55 -75 -32 -22 -38
-23 -48 -10 -6 9 -27 15 -48 15 -20 0 -36 4 -36 10 0 13 60 80 72 80 24 0 87
62 94 93 20 84 -27 107 -135 67 -50 -20 -55 -20 -72 -4 -15 13 -16 20 -8 31 9
10 8 18 -5 31 -19 22 -21 75 -5 122 12 33 -2 154 -23 193 -11 22 -41 22 -62
-2 -18 -20 -46 -135 -46 -192 0 -46 -18 -99 -34 -99 -27 0 -86 81 -86 119 0
11 -17 41 -37 68 -20 26 -54 86 -74 133 -28 64 -42 86 -58 88 -11 2 -21 -2
-21 -8 0 -6 -29 -42 -65 -80 -65 -69 -209 -279 -258 -375 -13 -27 -57 -86 -96
-129 -38 -44 -87 -111 -108 -150 -29 -54 -38 -66 -41 -49 -4 27 25 86 89 180
49 72 58 96 39 108 -30 19 23 85 68 85 26 0 56 36 158 189 55 83 115 160 157
200 69 67 76 83 52 115 -8 11 -15 31 -15 44 0 13 -9 35 -20 49 -11 14 -20 34
-20 43 0 10 -7 23 -15 30 -11 9 -13 16 -6 23 7 7 -1 23 -24 49 -19 21 -35 43
-35 49 0 7 -16 31 -35 55 l-35 43 42 29 c88 60 228 113 383 146 39 8 107 6
124 -4z m-8287 -182 c8 -16 12 -76 13 -189 0 -204 4 -212 75 -168 27 17 52 38
55 48 14 47 149 109 242 112 l68 3 2 -30 c2 -24 -6 -36 -43 -66 -31 -26 -55
-38 -77 -38 -18 0 -61 -10 -96 -22 -55 -20 -66 -28 -78 -58 -8 -19 -27 -48
-43 -65 -15 -17 -33 -53 -41 -82 -12 -50 -11 -53 14 -92 35 -52 44 -133 25
-215 -14 -57 -38 -88 -38 -49 0 24 -19 43 -41 43 -10 0 -32 12 -49 26 -55 47
-54 16 5 -107 79 -164 78 -163 105 -176 32 -16 50 -51 49 -93 -2 -44 10 -108
22 -116 12 -7 12 -54 0 -54 -4 0 -16 21 -26 48 -28 74 -79 180 -129 267 l-46
80 0 -57 c0 -60 -15 -78 -25 -30 -4 15 -17 62 -31 104 -29 92 -30 105 -9 88
24 -20 18 -1 -27 85 -37 71 -81 195 -94 265 -4 18 6 39 34 76 21 28 44 67 51
85 7 19 22 54 33 79 49 108 72 211 51 223 -19 10 -74 -25 -86 -55 -8 -18 -24
-42 -36 -52 -11 -11 -21 -23 -21 -28 0 -5 -11 -26 -25 -48 -47 -75 -75 -37
-49 67 12 47 13 67 4 82 -9 18 -7 22 12 30 13 5 43 25 67 45 24 20 55 39 70
42 14 3 31 7 36 9 32 11 65 3 77 -17z m12205 -223 c-6 -114 0 -192 27 -330 9
-44 17 -138 18 -210 3 -124 4 -130 26 -141 40 -20 59 -5 112 88 57 100 67 136
51 175 -15 38 -18 95 -5 100 11 4 74 -124 74 -151 0 -9 -24 -60 -54 -113 -30
-53 -53 -100 -50 -104 2 -4 19 -10 37 -14 17 -4 47 -16 66 -27 25 -14 44 -18
68 -13 28 5 34 12 44 47 13 50 84 133 143 166 22 13 66 32 96 41 64 20 70 32
40 93 -29 57 -41 98 -30 98 9 0 80 -104 80 -117 0 -17 36 -43 61 -43 37 0 59
-9 59 -26 0 -13 -19 -20 -130 -44 -117 -27 -214 -93 -251 -170 -17 -36 -31
-52 -49 -56 -55 -12 -75 -21 -78 -35 -1 -8 20 -53 48 -102 71 -124 64 -138
-23 -46 -86 91 -176 153 -226 155 -20 1 -76 2 -126 2 -49 0 -107 0 -127 1 -20
0 -40 -4 -43 -9 -3 -6 -21 -10 -40 -10 -66 0 -212 -50 -230 -79 -3 -6 4 -25
15 -43 11 -18 20 -41 20 -50 0 -20 3 -21 75 -22 28 -1 70 -9 95 -18 25 -9 64
-22 86 -29 49 -14 71 -26 62 -34 -3 -3 -56 6 -117 21 -104 25 -113 25 -136 10
-37 -24 -34 -33 40 -135 28 -38 37 -124 11 -102 -8 6 -19 32 -25 56 -6 24 -19
52 -29 62 -55 54 -72 89 -72 151 0 52 -3 63 -22 76 -12 9 -30 16 -39 16 -27 0
-70 40 -64 59 3 11 -4 25 -17 38 -19 16 -29 19 -55 11 -21 -5 -30 -13 -27 -22
7 -18 -9 -28 -30 -20 -10 4 -16 18 -16 35 0 16 -3 29 -7 30 -5 0 -25 2 -45 5
-20 2 -39 0 -43 -6 -4 -6 -23 -7 -48 -4 -49 8 -68 21 -49 33 16 10 -57 7 -111
-4 -21 -4 -57 -18 -80 -31 -95 -54 -107 -58 -119 -46 -8 8 -18 8 -37 -3 -14
-7 -34 -16 -43 -19 -10 -3 -18 -14 -18 -25 0 -10 -9 -21 -20 -24 -11 -3 -23
-13 -27 -23 -11 -30 -36 -54 -56 -54 -22 0 -87 -58 -87 -78 0 -7 -14 -34 -31
-58 -22 -33 -29 -52 -25 -70 4 -14 0 -34 -8 -47 -8 -12 -20 -41 -27 -64 -7
-24 -16 -43 -21 -43 -5 0 -17 19 -27 43 -53 122 -226 466 -273 543 -30 49 -57
98 -61 108 -8 19 -7 19 12 2 11 -10 41 -49 66 -87 32 -48 50 -67 58 -61 22 17
56 20 68 6 6 -8 17 -14 24 -14 7 0 26 -7 41 -15 37 -19 74 -19 74 -1 0 8 5 27
11 43 6 15 12 56 13 91 2 66 13 86 42 80 14 -2 20 -14 22 -44 l3 -41 72 38
c69 37 162 70 237 83 20 4 65 -1 107 -11 69 -16 73 -16 92 1 25 23 41 13 41
-24 0 -62 40 -83 225 -120 93 -18 153 -36 169 -51 19 -17 68 -8 134 25 37 18
103 41 147 50 198 42 190 38 187 94 -6 117 -3 161 15 217 18 54 20 82 17 268
-3 220 4 270 32 246 14 -12 16 -30 11 -124z m-1689 53 c21 -21 13 -46 -20 -67
-88 -54 -148 -153 -148 -242 l0 -38 34 23 c52 35 95 51 108 38 19 -19 -2 -52
-43 -69 -43 -17 -47 -36 -8 -41 13 -2 29 -8 34 -14 7 -7 -4 -9 -35 -5 -25 3
-61 2 -80 -2 -32 -6 -35 -10 -43 -56 -4 -28 -12 -54 -17 -59 -5 -5 -33 -8 -62
-7 -64 1 -78 16 -78 83 0 41 5 54 35 86 19 22 45 61 58 88 43 91 107 177 175
235 37 32 69 58 73 59 3 0 10 -5 17 -12z m-4523 -78 c9 -10 15 -29 13 -42 -3
-20 -10 -24 -57 -30 -39 -4 -61 -14 -85 -35 -17 -16 -49 -35 -71 -42 -22 -7
-59 -32 -82 -54 l-43 -41 0 60 c0 34 5 75 11 92 11 31 33 43 192 104 46 17
100 12 122 -12z m-3007 -11 c39 -13 59 -61 36 -84 -19 -19 -32 -19 -78 0 -38
16 -75 8 -77 -18 0 -7 -1 -30 -2 -51 -3 -51 -20 -56 -42 -10 -14 30 -15 40 -5
59 8 14 10 37 6 59 -6 33 -5 36 16 36 13 0 30 5 38 10 20 13 70 13 108 -1z
m2441 -79 c23 -33 41 -65 41 -71 0 -17 82 -150 97 -156 7 -3 27 7 44 21 17 15
37 25 43 23 6 -2 11 -27 11 -61 0 -48 -4 -60 -27 -81 -15 -14 -31 -25 -36 -25
-5 0 -29 38 -52 85 -24 47 -57 98 -74 113 -42 36 -69 77 -90 135 -16 41 -16
77 -2 77 2 0 23 -27 45 -60z m3699 -12 c28 -35 66 -83 85 -108 37 -50 120 -92
192 -96 46 -2 168 -57 205 -91 14 -13 33 -26 43 -29 10 -3 16 -11 14 -17 -7
-21 -52 -18 -87 5 -68 45 -136 76 -185 86 -27 6 -77 22 -110 36 -33 14 -75 26
-92 26 -34 0 -45 16 -18 26 20 8 19 24 -6 54 -23 29 -81 116 -98 148 -23 42 7
22 57 -40z m-9573 -55 c-13 -53 -89 -143 -121 -143 -12 0 -27 -7 -34 -15 -12
-14 -15 -14 -31 1 -20 18 -86 148 -91 179 -2 17 3 20 31 20 34 0 35 -1 54 -65
30 -102 47 -109 83 -35 8 18 33 53 55 77 37 39 41 41 51 25 5 -10 7 -30 3 -44z
m6463 -5 c-3 -24 -28 -28 -73 -14 -16 5 -28 -4 -57 -39 -34 -43 -36 -49 -31
-100 6 -54 -10 -115 -28 -115 -12 0 -29 44 -36 95 -4 30 0 52 15 81 23 46 64
87 89 89 10 1 25 5 33 8 20 8 51 14 73 16 14 1 18 -5 15 -21z m-6285 -275 c4
-7 16 -13 25 -13 29 0 59 -27 65 -60 4 -16 16 -44 29 -60 27 -38 16 -50 -20
-22 -54 44 -157 112 -169 112 -6 0 -21 12 -32 26 -23 29 -16 49 24 64 20 8 57
-15 78 -47z m847 8 c0 -30 -64 -162 -106 -217 -18 -24 -29 -30 -48 -27 -42 8
-106 -68 -156 -187 -40 -94 -60 -117 -68 -76 -2 9 8 38 21 65 14 26 33 73 42
105 13 44 30 72 75 120 32 34 62 73 65 87 9 33 53 83 93 103 18 9 38 25 45 36
18 29 37 25 37 -9z m435 6 c46 -14 165 -85 165 -99 0 -5 22 -33 48 -61 85 -92
103 -136 111 -261 6 -95 19 -117 57 -101 17 7 40 12 84 17 37 5 121 -16 185
-46 39 -18 96 -45 128 -60 33 -15 55 -31 52 -37 -4 -6 -12 -6 -18 -1 -22 16
-92 31 -182 37 -49 3 -103 13 -120 20 -64 29 -131 43 -187 38 l-57 -5 6 53 c5
50 1 61 -41 144 -51 100 -183 252 -246 283 -29 14 -35 23 -38 55 -4 41 -3 42
53 24z m8673 -160 c28 -22 8 -28 -83 -25 -87 2 -96 1 -115 -20 -11 -12 -33
-22 -48 -22 -15 -1 -38 -7 -52 -15 -34 -19 -40 -18 -40 4 0 29 -17 35 -45 17
-27 -18 -65 -21 -65 -7 0 10 76 34 145 47 22 4 54 13 70 20 35 15 214 16 233
1z m-4474 -169 c-4 -7 -45 -68 -91 -136 -46 -67 -83 -128 -83 -134 0 -6 19
-32 43 -57 23 -25 49 -55 57 -66 8 -11 38 -40 67 -64 28 -24 64 -61 80 -83 32
-47 170 -155 211 -164 15 -4 35 -15 45 -25 22 -23 60 -24 93 -3 20 14 30 15
50 5 14 -6 37 -11 52 -11 34 0 98 -32 95 -47 -2 -7 23 -26 55 -44 31 -18 64
-38 73 -46 9 -8 59 -18 110 -24 52 -6 103 -17 114 -25 11 -8 40 -30 65 -48 52
-40 66 -42 100 -16 14 11 34 20 46 20 20 0 64 41 64 59 0 11 47 21 127 28 36
3 67 11 74 19 6 8 17 14 23 14 6 0 25 14 43 30 30 27 32 31 21 62 -6 18 -35
74 -65 125 -50 87 -63 123 -45 123 8 0 122 -197 135 -234 6 -15 14 -17 45 -11
20 3 48 17 62 30 31 30 174 51 230 35 19 -6 54 -10 78 -10 24 0 64 -5 90 -11
76 -18 74 -16 60 -39 -10 -16 -19 -18 -50 -13 -30 4 -38 2 -38 -10 0 -8 5 -17
11 -19 15 -5 0 -36 -22 -43 -24 -8 -40 2 -32 20 3 10 -2 15 -16 15 -12 0 -21
5 -21 10 0 6 11 10 25 10 18 0 25 5 25 19 0 20 -25 35 -42 25 -18 -11 -91 -13
-111 -3 -28 15 -77 1 -77 -22 0 -10 -6 -20 -12 -20 -43 -4 -88 -20 -88 -31 0
-6 9 -8 19 -5 14 3 26 -5 43 -29 13 -18 37 -39 53 -45 17 -6 38 -15 48 -21 14
-7 24 -5 36 6 10 9 20 16 24 16 16 0 57 -50 57 -69 0 -23 65 -91 88 -91 8 0
10 -8 6 -24 -4 -17 1 -28 20 -44 14 -11 26 -27 26 -36 0 -16 19 -56 31 -66 3
-3 9 -17 12 -32 4 -14 18 -40 32 -56 14 -17 25 -34 25 -40 0 -6 5 -12 10 -14
14 -4 18 -56 5 -60 -5 -2 -20 20 -33 47 -13 28 -38 66 -57 85 -18 19 -37 50
-44 69 -6 19 -29 50 -51 69 -22 19 -48 48 -56 64 -13 26 -20 29 -46 26 -21 -4
-38 1 -52 13 -27 23 -136 89 -147 89 -5 0 -15 11 -21 25 -13 29 -53 34 -84 10
-10 -8 -32 -15 -49 -15 -27 -1 -28 -2 -12 -14 26 -20 4 -24 -78 -15 -38 4 -77
3 -84 -1 -8 -4 -26 -4 -39 1 -30 12 -42 4 -42 -27 0 -19 -5 -24 -24 -24 -13 0
-26 -7 -30 -15 -3 -8 -16 -15 -29 -15 -54 0 -216 -196 -217 -261 0 -9 -9 -24
-20 -34 -18 -16 -20 -16 -26 -1 -3 9 -4 27 -2 41 4 18 0 26 -13 30 -25 8 -25
35 -1 28 10 -2 26 5 37 17 15 17 17 25 8 40 -10 14 -9 19 2 24 8 3 17 16 21
30 3 14 15 28 25 31 18 6 28 45 11 45 -5 0 -8 10 -8 22 1 25 -20 37 -107 64
-56 18 -60 18 -90 1 l-31 -18 -30 30 c-47 47 -84 74 -160 115 -59 33 -72 37
-93 27 -13 -6 -35 -11 -49 -11 -14 0 -35 -5 -46 -11 -17 -9 -24 -7 -42 16 -17
22 -27 26 -45 20 -19 -6 -22 -12 -16 -33 9 -37 24 -52 49 -52 33 0 45 -13 44
-48 -1 -18 6 -40 15 -50 10 -10 17 -23 17 -29 0 -6 15 -30 33 -54 19 -24 53
-84 76 -134 24 -49 67 -139 97 -200 30 -60 54 -116 54 -123 0 -7 9 -30 20 -52
20 -39 28 -120 12 -120 -5 0 -26 37 -47 83 -69 152 -213 434 -250 493 -79 123
-271 371 -399 514 -27 30 -116 125 -198 211 -140 147 -198 214 -198 230 0 21
33 13 68 -17 22 -19 47 -34 54 -34 17 0 44 28 89 95 39 59 108 135 121 135 5
0 6 -6 2 -12z m7900 -16 c2 -4 7 -24 11 -45 l7 -37 -35 0 c-20 0 -39 -4 -42
-10 -3 -5 -19 -10 -34 -10 -16 0 -53 -13 -84 -30 -31 -16 -63 -30 -70 -30 -30
0 -127 -124 -127 -162 0 -49 -35 -45 -46 5 -3 18 -11 38 -17 45 -8 10 -1 21
29 45 46 38 73 68 88 99 13 26 140 101 206 122 51 16 106 20 114 8z m-12059
-105 c18 -45 28 -55 75 -80 30 -15 63 -36 74 -46 19 -19 18 -20 -25 -60 -23
-23 -49 -41 -56 -41 -8 0 -18 -10 -24 -23 -5 -12 -23 -30 -40 -39 -16 -10 -32
-25 -36 -35 -4 -10 -21 -36 -38 -58 -18 -22 -45 -68 -60 -102 -28 -62 -40 -74
-47 -51 -6 18 50 170 71 193 11 11 30 31 43 45 13 14 48 45 77 70 75 63 91 79
91 90 0 10 -84 50 -107 50 -20 0 -103 50 -103 62 0 6 8 7 18 3 9 -4 28 -10 41
-13 23 -5 23 -4 16 49 -8 63 1 59 30 -14z m7340 -108 c8 -26 -11 -48 -83 -95
-30 -20 -68 -49 -86 -64 -17 -15 -46 -35 -64 -44 -32 -17 -45 -36 -56 -86 -3
-14 -30 -45 -61 -70 -30 -25 -55 -50 -55 -56 0 -6 -9 -19 -20 -29 -13 -12 -20
-29 -18 -44 1 -14 -1 -48 -5 -74 -7 -37 -12 -47 -23 -43 -10 4 -21 -5 -32 -25
-28 -51 -53 -80 -63 -73 -6 4 -4 13 5 23 9 10 16 22 16 27 0 5 9 27 21 49 18
34 79 203 79 220 0 4 -4 3 -10 0 -23 -14 1 21 55 79 11 12 25 35 30 50 6 16
19 34 30 40 11 6 41 28 66 49 26 20 52 37 58 37 5 0 33 19 60 43 138 118 145
122 156 86z m-2747 -93 c101 -16 48 -48 -76 -46 -48 0 -111 -1 -140 -3 -58 -3
-67 2 -58 36 5 21 10 22 113 21 59 0 132 -4 161 -8z m6585 -3 c77 -40 183
-122 264 -205 40 -42 51 -48 87 -48 23 0 66 -7 96 -16 146 -42 136 -37 255
-117 45 -31 145 -135 145 -152 0 -4 8 -19 19 -33 23 -34 34 -92 22 -123 -8
-22 -10 -18 -26 35 -19 65 -88 146 -124 146 -25 0 -81 56 -81 81 0 22 -38 43
-95 53 -21 4 -55 16 -75 26 -102 51 -347 54 -385 4 -5 -7 -28 -17 -50 -22 -35
-7 -40 -12 -38 -35 1 -18 -3 -27 -13 -27 -8 0 -14 4 -14 10 0 5 -14 17 -31 26
-24 12 -54 15 -130 12 -96 -3 -99 -2 -99 19 0 20 5 22 57 22 31 0 65 -5 74
-10 9 -4 42 -11 72 -15 47 -6 60 -3 85 14 28 21 130 63 205 85 20 6 37 16 37
21 0 15 -52 66 -68 66 -7 0 -42 29 -77 64 -34 35 -80 73 -102 84 -43 22 -74
52 -54 52 7 0 26 -7 44 -17z m-9105 -104 c2 -9 -18 -43 -43 -75 -70 -90 -206
-297 -270 -412 -32 -56 -70 -113 -84 -125 -35 -30 -92 -109 -130 -182 -51 -99
-42 -108 46 -40 32 25 76 58 98 72 22 14 68 51 103 81 34 30 65 52 68 49 29
-29 -93 -162 -229 -251 -103 -67 -327 -272 -435 -398 -72 -83 -159 -212 -204
-303 -60 -120 -188 -270 -196 -229 -2 9 5 28 17 43 12 14 32 46 46 71 39 70
58 102 91 155 17 28 50 82 73 120 22 39 64 102 92 140 79 110 109 155 109 164
0 5 -6 14 -14 20 -23 19 -31 71 -14 88 12 12 20 12 44 2 16 -7 36 -22 45 -33
16 -19 18 -19 70 23 30 23 64 54 75 69 20 26 65 121 104 225 11 27 27 60 37
74 10 14 34 49 53 78 19 29 53 79 75 112 22 33 56 88 75 122 19 35 50 85 68
113 17 27 32 63 32 79 0 16 3 28 8 27 26 -6 66 19 89 56 50 80 93 108 101 65z
m-738 -259 c21 -27 40 -40 56 -40 32 0 47 -36 48 -110 0 -42 5 -58 19 -69 19
-14 19 -14 -3 -31 -21 -16 -21 -18 -7 -46 14 -27 14 -32 -4 -54 -10 -14 -19
-29 -19 -35 0 -5 -9 -28 -20 -50 -11 -22 -19 -52 -20 -67 0 -15 -5 -30 -11
-34 -8 -5 -10 13 -7 63 2 52 9 76 26 97 17 22 22 42 22 85 0 87 -47 218 -74
208 -7 -3 -27 8 -44 24 -44 41 -44 93 0 98 3 1 21 -17 38 -39z m2118 18 c18
-18 15 -52 -8 -81 -11 -14 -20 -30 -20 -36 0 -23 49 -10 88 22 22 19 61 40 86
47 25 7 53 21 62 31 23 26 39 24 53 -7 14 -32 7 -44 -27 -44 -53 -1 -139 -37
-174 -74 l-33 -36 -40 14 c-36 13 -41 13 -52 -2 -7 -8 -13 -11 -13 -5 0 7 4
14 9 17 5 3 13 34 17 68 7 61 9 75 12 91 3 11 27 8 40 -5z m-5023 -73 c45 -4
153 -38 133 -43 -28 -6 -21 -19 15 -31 36 -12 151 -133 167 -176 l10 -27 -31
26 c-17 14 -36 26 -44 26 -7 0 -16 7 -19 16 -3 9 -12 14 -20 11 -15 -6 -51 31
-51 53 0 8 -15 18 -38 23 -31 8 -37 13 -37 35 -1 26 -1 26 -15 8 -10 -13 -20
-16 -32 -11 -10 5 -22 7 -27 6 -4 -1 -14 6 -21 15 -6 10 -27 17 -46 18 -19 1
-46 9 -61 19 -21 14 -45 19 -99 18 -39 0 -81 -3 -93 -6 -19 -6 -19 -4 4 16 24
21 30 21 150 14 69 -5 139 -9 155 -10z m1508 -105 c94 -26 146 -59 208 -130
29 -33 56 -60 61 -60 5 0 31 21 59 47 27 25 51 44 54 42 6 -7 -164 -181 -215
-220 -25 -19 -68 -59 -96 -89 -45 -47 -54 -52 -68 -41 -9 7 -16 19 -16 25 0
19 99 96 157 123 58 27 71 40 75 73 2 18 -4 25 -35 36 -21 7 -50 22 -65 32
-15 11 -38 23 -52 27 -44 13 -65 34 -80 77 -15 42 -17 43 -65 46 -75 3 -116
12 -110 23 10 16 117 10 188 -11z m2983 -77 c57 -59 89 -67 159 -37 20 8 38
14 39 12 1 -2 8 -16 14 -32 16 -37 2 -48 -49 -40 -20 4 -39 2 -42 -3 -7 -12
29 -48 77 -77 19 -12 58 -39 88 -61 60 -46 137 -92 318 -190 106 -58 252 -152
350 -226 14 -10 39 -25 55 -33 46 -21 435 -410 435 -435 0 -12 -4 -21 -10 -21
-5 0 -65 55 -132 121 -128 126 -199 189 -214 189 -16 1 -61 44 -87 82 -49 74
-88 97 -212 127 -49 13 -117 37 -150 55 -33 18 -82 39 -110 46 -84 22 -88 25
-69 62 13 25 14 32 2 40 -7 4 -49 31 -93 59 -301 188 -391 268 -430 380 -19
52 -20 84 -2 54 7 -11 35 -44 63 -72z m-3766 -33 c19 0 44 -7 54 -15 11 -8 28
-15 38 -15 21 0 136 -56 190 -94 l38 -25 26 34 c33 44 50 36 23 -10 -16 -27
-18 -38 -9 -55 14 -26 6 -50 -25 -80 -30 -28 -60 -21 -51 13 24 82 24 83 -53
121 -73 38 -86 42 -77 27 6 -9 -63 -21 -120 -21 -30 0 -36 5 -58 48 -31 63
-43 102 -25 85 7 -7 29 -13 49 -13z m1513 -86 c25 -14 48 -15 124 -10 l94 6
-6 -52 c-4 -29 -11 -66 -16 -83 -5 -16 -12 -68 -15 -115 -2 -47 -8 -99 -12
-115 -8 -29 -11 -30 -70 -33 -48 -2 -64 -7 -72 -22 -6 -12 -17 -16 -30 -13
-31 8 -34 22 -8 33 13 5 30 14 38 20 8 5 28 15 44 20 28 10 28 11 11 30 -11
13 -31 20 -52 20 -34 0 -110 -37 -133 -65 -8 -9 -30 -15 -58 -15 -36 0 -43 3
-34 12 19 19 14 28 -15 28 -39 0 -55 -13 -47 -35 6 -16 3 -17 -23 -12 -25 5
-32 2 -36 -13 -3 -12 -20 -22 -46 -29 -135 -35 -117 -36 -179 5 -102 68 -150
122 -123 138 9 6 150 -19 196 -35 24 -8 43 -6 99 14 63 22 67 26 48 36 -16 9
-26 8 -41 -1 -26 -16 -39 -2 -18 19 10 11 39 18 79 21 35 2 70 10 78 17 23 19
97 42 175 55 82 13 149 46 153 77 2 11 -7 33 -20 47 l-23 27 -93 -22 c-51 -11
-96 -18 -100 -14 -11 10 19 23 71 30 52 8 48 25 -5 25 -16 0 -28 5 -28 10 0
16 58 12 93 -6z m5967 -156 c0 -10 -6 -31 -14 -46 -7 -15 -35 -89 -61 -165
-31 -90 -57 -147 -75 -167 -28 -30 -66 -132 -55 -150 3 -5 18 -10 33 -10 38 0
60 -16 45 -31 -10 -10 -21 -9 -54 1 -56 19 -74 6 -74 -51 0 -71 -29 -93 -52
-42 -26 56 -6 107 50 126 11 4 17 17 17 37 0 16 5 30 10 30 6 0 10 5 10 10 0
6 -7 10 -15 10 -8 0 -16 6 -16 13 -2 21 -5 31 -13 50 -14 29 1 31 29 3 14 -14
27 -26 29 -26 1 0 12 21 24 48 122 273 153 350 149 368 -3 17 0 20 15 16 10
-2 18 -13 18 -24z m-2367 -19 c125 -35 208 -76 276 -136 55 -48 70 -90 29 -78
-13 4 -32 15 -43 25 -36 33 -208 107 -275 119 -36 6 -112 16 -168 21 -57 5
-108 12 -112 15 -5 3 -39 -1 -75 -10 -37 -8 -78 -15 -92 -15 -15 0 -34 -7 -44
-16 -10 -9 -24 -14 -31 -12 -8 3 0 12 19 21 17 9 40 30 50 47 15 26 21 29 49
24 20 -4 45 0 66 9 18 9 44 18 58 21 53 10 196 -7 293 -35z m-1463 -101 c36
-11 96 -21 133 -22 60 -2 80 -8 165 -53 108 -56 125 -77 137 -168 4 -27 18
-67 32 -87 27 -40 27 -41 -10 -102 -28 -48 -43 -55 -52 -24 -4 13 -15 31 -23
41 -10 12 -18 46 -22 94 l-5 76 -60 44 c-90 65 -121 79 -140 63 -8 -7 -15 -17
-15 -23 0 -6 34 -43 75 -82 76 -73 87 -91 61 -101 -21 -8 -194 75 -201 97 -7
21 -48 35 -130 45 -33 3 -89 15 -124 26 -54 17 -81 20 -172 16 -93 -5 -117
-10 -164 -33 -44 -23 -62 -27 -99 -22 -40 6 -51 3 -98 -28 -29 -20 -90 -71
-135 -115 -45 -44 -87 -80 -93 -80 -62 0 72 189 212 298 38 29 87 60 111 68
24 8 47 23 52 36 14 30 39 38 30 9 -9 -29 15 -37 53 -17 18 9 32 25 34 38 3
22 8 23 108 28 160 8 268 1 340 -22z m8195 -38 c26 21 155 -45 155 -79 0 -18
-23 -24 -34 -9 -15 20 -67 36 -91 28 -11 -4 -45 -5 -75 -3 -55 5 -82 -4 -151
-50 -14 -10 -63 -24 -108 -32 -44 -8 -96 -21 -114 -29 -17 -8 -57 -17 -86 -21
-30 -3 -66 -12 -80 -20 -15 -8 -46 -23 -71 -35 -159 -75 -162 -77 -205 -180
-24 -58 -82 -136 -93 -125 -5 5 53 127 88 181 43 69 124 152 162 169 20 8 41
22 45 30 11 20 99 75 120 75 30 0 138 33 148 45 6 6 42 18 80 24 39 7 83 18
98 25 20 8 55 9 115 4 50 -4 90 -4 97 2z m280 -146 c101 -24 194 -58 223 -81
l27 -22 -27 -1 c-15 0 -29 4 -32 9 -3 4 -25 11 -48 14 -24 3 -83 12 -133 21
-88 15 -123 15 -295 1 -80 -7 -84 -6 -69 10 9 9 56 27 103 39 47 13 89 26 92
29 8 8 81 -1 159 -19z m-3060 -85 c52 -52 205 -169 223 -169 33 0 172 -224
172 -276 0 -12 13 -46 28 -75 l28 -54 -28 0 c-21 0 -30 6 -33 20 -16 88 -28
128 -56 180 -36 65 -130 163 -181 189 -18 8 -46 25 -63 36 -30 20 -159 63
-225 74 -61 10 -250 -21 -290 -48 -19 -13 -46 -27 -60 -31 -14 -5 -44 -23 -67
-42 -55 -45 -147 -222 -158 -303 -4 -30 -16 -82 -26 -115 -30 -95 -26 -124 26
-194 53 -73 67 -75 170 -32 39 16 103 37 143 47 68 16 80 16 155 2 181 -35
283 -60 297 -74 24 -24 0 -34 -59 -25 -29 5 -93 4 -143 -1 -62 -6 -94 -6 -102
2 -12 12 -73 13 -80 1 -3 -5 -15 -11 -27 -14 -19 -5 -20 -4 -5 12 41 46 14 51
-110 20 -124 -32 -135 -47 -113 -164 9 -48 8 -60 -4 -73 -21 -21 -31 -11 -55
55 -33 91 -55 114 -263 287 -87 73 -193 136 -229 136 -11 0 -46 9 -77 20 -57
20 -79 19 -143 -4 -19 -8 -60 -21 -90 -31 -30 -10 -69 -31 -87 -46 -17 -15
-45 -30 -61 -34 -16 -3 -58 -31 -93 -60 -56 -49 -145 -95 -183 -95 -14 0 -106
-108 -141 -165 -45 -72 -105 -112 -105 -69 0 17 42 101 72 144 10 14 27 54 38
89 23 74 44 101 76 101 58 0 97 31 135 108 26 53 62 72 148 80 62 7 67 9 82
39 30 60 31 60 147 60 97 0 112 3 158 27 59 31 78 27 119 -21 20 -25 45 -38
98 -54 55 -17 80 -31 107 -59 41 -45 114 -70 136 -48 21 21 22 129 1 158 -9
13 -17 36 -17 50 0 17 -9 30 -30 42 -29 17 -85 113 -71 122 11 7 197 0 209 -8
16 -10 58 14 73 41 22 40 138 142 188 164 100 45 142 53 278 54 73 0 133 2
133 5 0 3 -9 16 -20 30 -48 61 -7 53 55 -11z m-1140 -126 c15 -18 34 -33 44
-33 9 0 33 -11 53 -25 20 -14 41 -25 45 -25 4 0 24 -14 43 -31 l35 -31 -45 6
c-31 5 -51 14 -65 31 -19 23 -28 25 -96 25 -81 0 -91 5 -132 73 -10 15 -24 27
-32 27 -8 0 -15 4 -15 9 0 11 95 19 121 11 9 -3 29 -20 44 -37z m5093 -7 c22
-21 -2 -56 -37 -56 -16 0 -40 -9 -54 -20 -14 -11 -39 -20 -57 -20 -17 0 -40
-5 -51 -11 -16 -8 -26 -7 -46 6 -24 16 -26 16 -47 -4 -12 -12 -30 -21 -39 -21
-57 0 32 70 125 99 18 6 58 19 88 30 56 21 94 20 118 -3z m-2349 -141 c30 -9
27 -50 -5 -80 -28 -26 -34 -28 -196 -46 l-106 -12 -36 -43 c-29 -35 -64 -57
-169 -108 -73 -35 -163 -77 -202 -92 l-70 -28 90 -12 c109 -14 169 -31 191
-56 10 -10 15 -20 13 -22 -2 -2 -29 1 -59 6 -77 12 -291 27 -308 21 -13 -5
-62 33 -62 48 0 12 116 74 272 146 79 35 193 89 253 118 61 29 135 58 165 65
137 29 165 45 181 101 11 35 14 38 20 21 4 -11 17 -23 28 -27z m-3700 -130
c71 -3 74 -4 117 -46 24 -23 41 -46 37 -52 -7 -12 -67 0 -133 28 -70 30 -115
37 -215 35 -51 -1 -99 -8 -133 -21 -58 -21 -92 -24 -92 -9 0 15 76 50 108 50
17 0 45 7 63 15 26 12 52 14 104 9 39 -4 103 -8 144 -9z m-7183 -131 c68 -14
154 -62 154 -85 0 -12 -55 -12 -94 0 -17 5 -80 21 -141 35 -119 28 -204 27
-238 -2 -16 -14 -127 -31 -127 -19 0 9 84 54 115 61 17 3 53 12 80 20 57 16
143 12 251 -10z m6344 15 c19 2 89 2 155 2 89 -1 124 -5 134 -16 18 -18 4 -37
-39 -55 -26 -11 -34 -9 -66 9 -40 24 -68 21 -93 -10 -31 -36 -62 -33 -120 11
-63 47 -76 49 -67 15 6 -24 5 -25 -43 -25 -37 0 -53 -5 -59 -17 -7 -11 -25
-18 -55 -19 -39 -3 -46 0 -51 19 -12 44 -9 46 44 40 32 -4 50 -2 50 5 0 19
131 54 160 44 8 -3 31 -5 50 -3z m-2355 -239 c66 -33 128 -60 138 -60 10 0 28
7 41 15 31 21 103 22 123 3 8 -9 18 -30 22 -48 10 -53 31 -58 87 -23 27 17 61
33 77 37 37 9 142 -17 222 -55 113 -53 98 -82 -48 -94 -50 -5 -101 -9 -112 -9
-15 -1 -21 -9 -23 -31 -1 -16 -7 -60 -13 -96 -9 -56 -14 -68 -35 -78 -36 -16
-52 -14 -87 12 -18 12 -49 30 -69 39 -33 15 -38 21 -38 51 0 25 7 38 30 55 34
25 37 38 15 69 l-15 21 -56 -19 c-30 -11 -74 -22 -98 -25 -42 -6 -44 -5 -84
42 -31 37 -56 55 -101 72 -33 13 -75 35 -94 51 -28 22 -53 30 -130 40 -82 12
-102 11 -144 -2 -26 -8 -61 -18 -77 -22 -17 -3 -47 -20 -67 -36 -21 -16 -58
-38 -83 -49 -28 -13 -65 -43 -98 -81 -54 -62 -92 -89 -126 -89 -28 0 -34 37
-13 84 24 54 153 192 188 201 15 3 52 22 83 40 46 29 69 36 145 43 50 5 142 8
205 6 l115 -4 120 -60z m-2837 31 c59 -22 122 -65 122 -85 0 -37 -53 -46 -115
-20 -21 8 -48 13 -60 10 -30 -8 -68 -69 -52 -85 16 -16 4 -23 -48 -29 -32 -3
-58 1 -85 13 -63 28 -202 6 -305 -49 -16 -9 -38 -16 -47 -16 -10 0 -33 -8 -53
-17 -39 -19 -52 -14 -37 14 10 19 265 153 291 153 7 0 42 24 78 54 64 53 125
76 164 61 8 -3 28 -1 44 4 43 13 45 13 103 -8z m8300 -189 c15 -10 45 -27 67
-37 52 -24 101 -64 149 -121 42 -50 41 -72 -2 -32 -31 30 -147 90 -208 108
-22 7 -51 20 -64 30 -22 17 -23 20 -10 44 16 31 32 33 68 8z m2782 -111 c0
-10 -4 -31 -9 -47 -5 -16 -12 -41 -15 -56 -5 -20 -25 -39 -74 -70 -37 -24 -80
-49 -95 -56 -49 -21 -126 -95 -166 -157 -59 -92 -107 -194 -121 -255 -20 -88
-20 -87 -30 -70 -5 8 -7 22 -5 30 3 8 9 54 14 102 9 96 28 140 111 263 47 70
65 88 197 195 37 30 83 71 102 91 50 51 91 64 91 30z"/>
<path d="M11728 3416 c-75 -31 -132 -74 -194 -147 -95 -111 -105 -171 -31
-177 29 -3 41 3 72 33 20 20 41 47 46 58 5 12 18 36 29 52 11 17 23 38 26 47
4 10 20 27 38 37 49 31 99 88 93 105 -8 20 -11 20 -79 -8z"/>
<path d="M14698 5573 c-3 -27 -19 -77 -35 -113 -53 -113 -65 -164 -67 -275 -1
-85 2 -106 17 -122 9 -11 17 -29 17 -42 0 -13 9 -26 24 -32 33 -16 45 -44 49
-119 2 -36 4 118 5 343 1 224 0 407 -2 407 -2 0 -6 -21 -8 -47z"/>
<path d="M5520 5246 c0 -13 9 -43 20 -67 11 -24 20 -63 20 -87 0 -36 -4 -44
-25 -52 -23 -9 -25 -15 -25 -67 -1 -32 -7 -69 -14 -82 -15 -28 -6 -99 15 -112
31 -20 67 -10 88 25 12 18 21 40 21 48 0 8 11 20 24 26 21 9 24 18 26 79 7
186 2 207 -39 181 -18 -11 -23 -11 -31 2 -21 34 0 56 28 28 17 -17 27 17 14
47 -8 16 -23 26 -47 31 -19 3 -38 10 -41 15 -11 19 -34 9 -34 -15z"/>
<path d="M14700 4506 c0 -106 -2 -116 -21 -130 -17 -11 -22 -27 -24 -73 -2
-38 2 -63 11 -73 11 -13 8 -23 -18 -63 l-31 -48 37 -31 c33 -27 37 -36 34 -64
-3 -23 0 -34 9 -34 10 0 13 63 13 315 0 173 -2 315 -5 315 -3 0 -5 -51 -5
-114z"/>
</g>
</svg>
