<?xml version="1.0" standalone="no"?>
<!DOCTYPE svg PUBLIC "-//W3C//DTD SVG 20010904//EN"
 "http://www.w3.org/TR/2001/REC-SVG-20010904/DTD/svg10.dtd">
<svg version="1.0" xmlns="http://www.w3.org/2000/svg"
 width="374.000000pt" height="221.000000pt" viewBox="0 0 374.000000 221.000000"
 preserveAspectRatio="xMidYMid meet">

<g transform="translate(0.000000,221.000000) scale(0.100000,-0.100000)"
fill="#000000" stroke="none">
<path d="M1074 1529 c-137 -66 -373 -182 -524 -257 -318 -158 -300 -138 -237
-272 33 -69 36 -72 36 -41 1 18 -11 60 -25 92 -15 33 -25 62 -22 65 12 11
1008 494 1021 494 7 0 28 -34 47 -76 28 -64 31 -79 21 -100 -26 -58 4 -124 56
-124 17 0 29 -16 54 -71 18 -38 41 -75 52 -81 11 -6 18 -6 16 0 -2 5 -22 50
-43 100 -36 83 -42 91 -63 86 -13 -4 -30 -1 -38 6 -20 17 -19 67 2 78 15 9 15
13 0 48 -38 95 -70 155 -86 164 -14 7 -73 -17 -267 -111z"/>
<path d="M3082 1565 c-40 -19 -72 -38 -71 -42 3 -19 -2 -25 -14 -15 -9 8 -123
-41 -437 -187 -233 -109 -428 -205 -434 -213 -7 -12 1 -37 31 -99 l41 -84 1
101 c1 84 4 104 19 117 17 15 64 17 475 17 317 0 458 3 463 11 4 8 9 8 17 0
12 -12 227 -16 227 -4 0 3 -14 37 -31 75 -28 59 -35 68 -59 68 -51 0 -79 63
-45 101 15 15 12 24 -24 103 -47 101 -50 102 -159 51z m-42 -111 c0 -8 -4 -14
-9 -14 -11 0 -22 26 -14 34 9 9 23 -3 23 -20z m30 -60 c0 -16 -16 -19 -25 -4
-8 13 4 32 16 25 5 -4 9 -13 9 -21z m25 -64 c-5 -8 -11 -8 -17 -2 -6 6 -7 16
-3 22 5 8 11 8 17 2 6 -6 7 -16 3 -22z m30 -48 c0 -18 -20 -15 -23 4 -3 10 1
15 10 12 7 -3 13 -10 13 -16z m29 -73 c-10 -16 -24 -9 -24 12 0 18 2 19 15 9
8 -7 12 -16 9 -21z"/>
<path d="M1180 1510 c0 -11 7 -20 15 -20 8 0 15 9 15 20 0 11 -7 20 -15 20 -8
0 -15 -9 -15 -20z"/>
<path d="M1212 1443 c5 -25 28 -28 28 -4 0 12 -6 21 -16 21 -9 0 -14 -7 -12
-17z"/>
<path d="M1242 1379 c1 -12 9 -24 16 -27 9 -3 13 3 10 19 -1 12 -9 24 -16 27
-9 3 -13 -3 -10 -19z"/>
<path d="M1274 1317 c-6 -17 2 -37 16 -37 15 0 19 29 5 40 -12 10 -16 9 -21
-3z"/>
<path d="M1300 1240 c0 -11 6 -20 13 -20 19 0 27 10 20 26 -8 21 -33 17 -33
-6z"/>
<path d="M1330 1180 c0 -5 7 -10 15 -10 8 0 15 5 15 10 0 6 -7 10 -15 10 -8 0
-15 -4 -15 -10z"/>
<path d="M387 1132 c-14 -15 -17 -40 -17 -123 0 -97 1 -105 22 -114 49 -22 49
-68 0 -90 -21 -9 -22 -17 -22 -117 0 -99 2 -108 22 -123 20 -13 89 -15 579
-15 481 1 558 3 577 16 20 14 22 24 22 122 0 100 -1 108 -22 117 -49 22 -49
68 0 90 21 9 22 17 22 117 0 99 -2 108 -22 122 -20 14 -92 16 -584 16 -531 0
-562 -1 -577 -18z m1137 -18 c13 -5 16 -23 16 -91 0 -82 -1 -86 -30 -113 -21
-20 -30 -37 -30 -60 0 -23 9 -40 30 -60 29 -27 30 -31 30 -114 l0 -86 -570 0
-570 0 0 94 c0 84 2 95 19 101 30 9 46 59 31 95 -7 17 -21 35 -31 41 -16 8
-19 22 -19 98 0 48 3 91 7 94 8 9 1096 9 1117 1z"/>
<path d="M1367 1094 c-11 -11 -8 -44 3 -44 15 0 24 30 13 41 -5 5 -12 6 -16 3z"/>
<path d="M1360 1000 c0 -11 7 -20 15 -20 8 0 15 9 15 20 0 11 -7 20 -15 20 -8
0 -15 -9 -15 -20z"/>
<path d="M504 957 c-2 -7 -3 -60 -2 -118 l3 -104 385 0 385 0 0 115 0 115
-383 3 c-311 2 -383 0 -388 -11z m746 -107 l0 -90 -360 0 -360 0 0 90 0 90
360 0 360 0 0 -90z"/>
<path d="M580 901 c0 -5 7 -11 15 -15 10 -4 15 -20 15 -51 0 -25 5 -45 10 -45
6 0 10 23 10 50 0 38 4 50 15 50 8 0 15 5 15 10 0 6 -18 10 -40 10 -22 0 -40
-4 -40 -9z"/>
<path d="M700 850 c0 -33 4 -60 10 -60 6 0 10 27 10 60 0 33 -4 60 -10 60 -6
0 -10 -27 -10 -60z"/>
<path d="M792 894 c-44 -30 -20 -104 34 -104 30 0 32 17 3 22 -30 4 -47 33
-33 56 6 9 21 18 33 20 11 2 21 8 21 13 0 14 -33 11 -58 -7z"/>
<path d="M894 897 c-9 -24 0 -100 13 -104 6 -3 13 8 15 24 l4 28 14 -27 c7
-16 19 -28 27 -28 11 0 10 6 -3 31 -13 25 -14 37 -5 57 16 34 4 42 -19 12 -15
-20 -20 -21 -20 -8 0 22 -19 33 -26 15z"/>
<path d="M1020 850 c0 -60 0 -60 29 -60 17 0 33 5 36 10 4 6 -5 10 -19 10 -16
0 -26 6 -26 15 0 8 9 15 20 15 11 0 20 5 20 10 0 6 -9 10 -20 10 -11 0 -20 5
-20 11 0 6 9 13 20 16 30 8 24 23 -10 23 l-30 0 0 -60z"/>
<path d="M1125 900 c-3 -5 1 -10 9 -10 12 0 16 -11 16 -51 0 -36 4 -49 13 -46
7 2 12 21 12 48 0 34 4 44 18 47 9 2 15 8 12 13 -8 12 -72 12 -80 -1z"/>
<path d="M1357 936 c-7 -19 18 -42 28 -26 8 13 -1 40 -14 40 -5 0 -11 -6 -14
-14z"/>
<path d="M1355 860 c-8 -14 3 -30 21 -30 8 0 14 9 14 20 0 21 -24 28 -35 10z"/>
<path d="M1362 788 c-13 -13 -4 -38 14 -38 15 0 19 35 6 44 -5 3 -14 0 -20 -6z"/>
<path d="M1360 700 c0 -11 7 -20 15 -20 8 0 15 9 15 20 0 11 -7 20 -15 20 -8
0 -15 -9 -15 -20z"/>
<path d="M1362 629 c1 -13 8 -23 13 -21 15 3 12 35 -3 40 -9 3 -13 -3 -10 -19z"/>
<path d="M2232 1128 c-18 -18 -17 -198 1 -198 21 0 47 -34 47 -61 0 -30 -9
-43 -37 -58 -21 -11 -23 -18 -23 -106 0 -84 2 -95 20 -105 13 -7 175 -10 479
-10 424 1 461 2 471 18 9 16 11 16 24 0 10 -14 29 -18 90 -18 115 0 116 1 116
120 0 80 -3 100 -14 100 -24 0 -46 30 -46 61 0 23 7 34 30 47 30 17 30 17 30
108 0 57 -4 94 -12 102 -17 17 -180 16 -197 0 -11 -10 -14 -10 -18 0 -7 17
-943 18 -961 0z m983 -58 c0 -7 -6 -15 -12 -17 -8 -3 -13 4 -13 17 0 13 5 20
13 18 6 -3 12 -11 12 -18z m0 -68 c0 -18 -20 -15 -23 4 -3 10 1 15 10 12 7 -3
13 -10 13 -16z m-107 -4 c17 -17 17 -229 0 -246 -9 -9 -104 -12 -364 -12 -194
0 -359 3 -368 6 -13 5 -16 26 -16 125 0 102 2 119 18 128 26 16 714 15 730 -1z
m110 -60 c-6 -18 -28 -21 -28 -4 0 9 7 16 16 16 9 0 14 -5 12 -12z m-6 -80
c-15 -15 -26 -4 -18 18 5 13 9 15 18 6 9 -9 9 -15 0 -24z m3 -56 c0 -18 -20
-15 -23 4 -3 10 1 15 10 12 7 -3 13 -10 13 -16z m5 -67 c0 -8 -7 -15 -15 -15
-8 0 -15 7 -15 15 0 8 7 15 15 15 8 0 15 -7 15 -15z m-8 -77 c-15 -15 -26 -4
-18 18 5 13 9 15 18 6 9 -9 9 -15 0 -24z"/>
<path d="M2387 983 c-4 -3 -7 -55 -7 -115 l0 -108 358 2 357 3 0 110 0 110
-351 3 c-193 1 -353 -1 -357 -5z m297 -59 c25 -9 19 -22 -11 -26 -22 -2 -29
-9 -31 -31 -3 -23 1 -28 27 -33 38 -8 41 -24 4 -24 -68 0 -86 90 -23 113 8 3
16 6 17 6 1 1 8 -2 17 -5z m-184 -14 c0 -5 -7 -10 -15 -10 -11 0 -15 -12 -15
-45 0 -25 -4 -45 -10 -45 -5 0 -10 20 -10 45 0 33 -4 45 -15 45 -8 0 -15 5
-15 10 0 6 18 10 40 10 22 0 40 -4 40 -10z m70 -45 c0 -42 -3 -55 -15 -55 -12
0 -15 13 -15 55 0 42 3 55 15 55 12 0 15 -13 15 -55z m200 38 c1 -17 1 -17 14
0 7 9 21 17 31 17 17 0 17 -1 0 -20 -16 -18 -17 -23 -4 -48 7 -15 15 -30 17
-34 2 -5 -3 -8 -12 -8 -8 0 -22 12 -30 28 l-15 27 -1 -27 c0 -18 -5 -28 -15
-28 -12 0 -15 13 -15 55 0 42 3 55 15 55 8 0 15 -8 15 -17z m170 7 c0 -5 -9
-10 -20 -10 -11 0 -20 -4 -20 -10 0 -5 9 -10 20 -10 27 0 25 -18 -2 -22 -28
-4 -27 -22 2 -26 34 -6 22 -22 -15 -22 l-35 0 0 55 0 55 35 0 c19 0 35 -4 35
-10z m120 0 c0 -5 -7 -10 -15 -10 -11 0 -15 -12 -15 -45 0 -25 -4 -45 -10 -45
-5 0 -10 20 -10 45 0 33 -4 45 -15 45 -8 0 -15 5 -15 10 0 6 18 10 40 10 22 0
40 -4 40 -10z"/>
</g>
</svg>
